<svg xmlns="http://www.w3.org/2000/svg" version="1" viewBox="0 0 2388 2393"><path d="M1172 1c-32 4-61 17-88 37L907 214 735 385l-10-11c-35-39-56-62-75-79a536 536 0 0 0-294-149c-67-9-120 3-160 38-34 30-57 84-62 150-3 43 8 185 21 262a760 760 0 0 0 95 265l3 6-105 106C32 1089 32 1088 19 1113c-14 28-20 57-19 90 2 38 13 68 36 99 6 8 113 116 519 521 281 282 516 516 522 521a175 175 0 0 0 162 39c25-6 52-20 71-36 8-7 1030-1028 1036-1036a181 181 0 0 0 9-220c-9-14-16-21-47-51l-166-167-5-6 18-36c24-50 34-72 48-115 35-106 53-229 53-366 0-41-4-66-18-99-17-43-41-71-78-89-30-15-57-20-95-19-26 1-45 4-77 12-77 19-154 59-218 113a844 844 0 0 0-106 106l-10 10-41-40a58019 58019 0 0 1-305-304 172 172 0 0 0-136-39zm36 88c13 2 27 8 39 17 4 3 67 64 171 168 151 151 182 183 182 185a1107 1107 0 0 1-69 97 908 908 0 0 0-421-62 920 920 0 0 0-250 62l-55-77-13-20 4-5 172-173c180-180 174-175 194-184 6-4 17-7 24-8h22zM351 237c48 8 102 29 147 56 40 24 76 53 112 90a1300 1300 0 0 1 166 216c0 2-7 7-34 24l-33 22-8-8-38-45c-54-65-75-87-105-117-58-57-106-88-155-98-9-2-14-2-33-2l-29 1c-20 6-30 16-34 36-2 12-1 45 2 64 2 17 13 71 20 100 16 70 39 134 63 176 21 35 48 69 75 92l37 34-43 95c-2 0-15-11-27-25l-28-30c-45-48-74-90-102-146-30-62-50-127-64-211-10-59-15-105-17-163-2-41 0-67 5-92 9-41 31-65 67-71 8-2 42 0 56 2zm1756 0c26 6 42 24 53 56 8 24 10 41 10 77-2 85-14 182-33 260a632 632 0 0 1-183 321l-23 25-3-5a1661 1661 0 0 1-28-63l-12-28c-1-2 0-3 7-10l20-18c54-46 97-113 123-191 12-38 17-60 41-180l6-34v-16c-1-23-4-34-14-44-10-11-22-14-46-14-32 0-59 6-90 22-32 16-68 44-108 83a30078 30078 0 0 0-105 120l-31 38-8 8c-1 1-42-26-68-44a1441 1441 0 0 1 177-229c40-40 80-70 129-95 45-22 84-35 126-41 15-2 49-1 60 2zM412 474a682 682 0 0 1 131 115c27 30 94 112 94 114l-84 95-8-6c-40-32-68-67-88-110a770 770 0 0 1-57-214l12 6zm1576 4c1 10-15 87-28 128-18 64-35 100-64 136-17 20-50 52-57 54-3 1-3 0-12-9-4-6-23-26-41-46l-32-36 4-7c18-33 60-83 112-135 35-34 63-58 87-74 12-8 27-16 30-16l1 5zm-730 103l78 11-16 53a978 978 0 0 0-62 342l-102 1-26-1v-11a1049 1049 0 0 0-76-370l-5-12 5-1a771 771 0 0 1 204-12zm-293 42a920 920 0 0 1 77 321c0 6 0 7-2 7-4 0-9-3-14-9a204 204 0 0 0-181-65c-33 5-61 17-91 40-16 12-19 13-30 13-6 0-10 0-21-4l-51-14c-35-10-50-15-52-17a663 663 0 0 1 362-279l3 7zm479-2a621 621 0 0 1 345 277l-35 10a14497 14497 0 0 0-92 27c-4 0-10-3-19-11-41-34-85-49-138-47-37 2-67 11-98 31-13 9-24 17-39 32-8 9-14 13-14 13-5-2-6-37-3-65 10-83 40-194 70-255l6-13h4l13 1zm646 328c12 10 189 188 193 194 11 15 17 33 17 50 0 18-4 31-19 55l-8 12-506 505c-283 283-509 509-514 512-12 10-25 18-36 21-8 3-9 4-23 4-13 0-14-1-24-4-12-4-23-11-33-20-12-10-1021-1018-1028-1026-7-10-14-23-17-34s-3-32 0-43 7-20 12-27c8-11 199-203 202-203s5 3 71 73l42 46c16 17 17 20 15 46a621 621 0 0 0 115 426 787 787 0 0 0 214 197c8 4 15 11 18 18l8 21c28 93 85 164 158 197 21 9 47 16 70 20a1746 1746 0 0 0 333 3c87-9 156-49 202-116 20-29 33-56 46-96l10-27c5-10 16-20 31-29 71-44 138-105 188-171a632 632 0 0 0 128-432c-2-9-2-24 0-31 5-17 12-26 42-56l50-53c25-28 34-37 36-37l7 5zM897 968c22 4 40 13 57 30a106 106 0 0 1 32 94 112 112 0 0 1-126 92 110 110 0 1 1 36-216zm645 1c20 5 37 16 52 31 20 21 31 46 31 74 1 61-49 111-111 111a109 109 0 0 1-87-175 109 109 0 0 1 115-41zm-959 16a6336 6336 0 0 0 100 30l-3 11c-18 95 27 188 109 229a238 238 0 0 0 136 17c3-2-6 12-25 37-61 80-76 101-96 141a410 410 0 0 0-45 165l-7-3a575 575 0 0 1-227-382c-9-78 0-160 24-224 8-21 11-27 13-27l21 6zm1252-2l6 18a547 547 0 0 1 28 204 552 552 0 0 1-196 381c-17 15-41 34-42 33s-4-19-5-32c-5-64-26-122-64-180l-52-71-49-67 11 1a201 201 0 0 0 237-239c-3-18-4-16 10-20 38-12 108-31 113-31l3 3zm-567 102l7 25c12 52 36 106 71 158 11 16 28 40 59 79l74 99c31 44 51 93 57 145 2 15 2 53 0 69-4 25-11 56-21 87-25 76-58 118-113 141-21 9-44 15-74 17-13 2-79 6-85 6-2 0-2-4-2-61l-1-61 24-3c26-3 32-5 43-9 41-14 68-51 77-105 1-8 2-16 2-36v-25l-4-7c-7-15-20-23-48-30a234 234 0 0 0-92-3c-26 3-68 3-98-1-33-4-54-4-79 2-40 8-57 20-61 44-2 9-1 30 1 49 7 48 24 81 53 100 20 14 41 20 74 22l16 1v123h-33c-35-1-52-2-76-6-41-8-69-20-95-42-45-37-76-107-91-206-2-15-2-60 0-75 7-45 25-87 54-131 17-25 47-65 91-123 37-48 53-70 69-99 22-39 38-79 49-125 6-24 7-26 14-27l70-1 65 1 3 8z"/></svg>