<svg viewBox="-42 0 511 512" xmlns="http://www.w3.org/2000/svg"><path d="M126 136l-14 2a56 56 0 0 0-93 39v54l4-1h10v-35c0-2 2-4 4-4h122c2 0 4 2 4 4v43l14-8v-44c0-28-23-50-51-50zm0 0" fill="#775436"/><path d="M169 400h4v-6c-9-9-15-21-17-34h-9c-7 0-13-6-13-13v-11c0-6 4-11 9-13v-5h-9a65 65 0 0 1-72 0H49c-15 0-27 11-27 26v154c0 4 3 6 7 6h117v-82c0-12 10-22 23-22zm0 0" fill="#64cbff"/><path d="M33 265v-35H23c-8 0-15 7-15 15v13c0 8 7 15 15 15h11l-1-8zm0 0" fill="#ffd5b3"/><path d="M143 276c0-16 8-30 20-38v-43c0-2-2-4-4-4H37c-2 0-4 2-4 4v70c0 35 29 63 65 63 17 0 33-6 45-17v-35zm0 0" fill="#ffd5b3"/><path d="M326 125c-52 0-94 41-94 92v23a46 46 0 0 1 29 7v-30c0-2 1-3 3-3h56c10 0 19-5 25-14a4 4 0 0 1 6 0c5 9 14 14 24 14h12c2 0 4 1 4 3v48c0 22-12 42-30 53h14c6 0 12 2 17 6h22c3 0 6-3 6-5V217c0-51-43-92-94-92zm0 0" fill="#775436"/><path d="M375 318h-13a65 65 0 0 1-72 0h-8v5c6 2 9 7 9 13v11c0 7-6 13-13 13h-9c-2 14-9 26-19 35v5h6c13 0 23 10 23 22v83h116c3 0 6-3 6-7V344c0-15-11-26-26-26zm0 0" fill="#f7931e"/><path d="M387 214h-12c-10 0-19-5-24-14a4 4 0 0 0-6 0c-6 9-15 14-25 14h-56c-2 0-3 1-3 3v30c13 7 21 21 21 37v28c12 10 27 16 44 16 35 0 65-28 65-63v-48c0-2-2-3-4-3zm0 0" fill="#ffd5b3"/><path d="M256 400h-12a57 57 0 0 1-63 0h-12c-13 0-23 10-23 22v83h133v-83c0-12-10-22-23-22zm0 0" fill="#5dc647"/><g fill="#ffd5b3"><path d="M278 322h-9v38h9c7 0 13-6 13-13v-11c0-8-6-14-13-14zm0 0M156 353v-31h-9c-7 0-13 6-13 14v11c0 7 6 13 13 13h9v-7zm0 0"/><path d="M266 288h-45c-2 12-13 21-26 21h-39v44c0 31 25 56 57 56 31 0 57-25 57-56v-61c0-2-2-4-4-4zm0 0"/></g><path d="M214 147l-6-3-69-68a40 40 0 0 1 0-57c8-7 18-11 29-11s21 4 29 11l17 17 17-17c8-7 18-11 29-11s21 4 28 11c16 16 16 41 0 57l-68 68-6 3zm0 0" fill="#fb8276"/><path d="M237 240l-12 2a49 49 0 0 0-82 34v47l4-1h9v-13h39c13 0 24-9 26-21h45c2 0 4 2 4 4v30h8l4 1v-39c0-24-20-44-45-44zm0 0" fill="#c6a07d"/><path d="M71 254c4 0 8-4 8-8v-17a8 8 0 0 0-15 0v17c0 4 3 8 7 8zm0 0M124 254c5 0 8-4 8-8v-17a8 8 0 0 0-15 0v17c0 4 3 8 7 8zm0 0"/><path d="M326 117c-56 0-102 45-102 100v14a57 57 0 0 0-39-10v-35a58 58 0 0 0-70-56 63 63 0 0 0-104 47v49c-6 4-10 11-10 19v13c0 12 10 22 22 22h4c3 12 8 22 16 31-16 3-28 16-28 33v154c0 8 6 14 14 14h366c8 0 14-6 14-14V391a7 7 0 1 0-15 0v106H286v-16a8 8 0 0 0-15 0v16H154v-75c0-8 7-15 15-15h10a65 65 0 0 0 67 0h10c8 0 15 7 15 15v23a7 7 0 1 0 15 0v-23c0-14-10-26-23-29 6-7 10-16 12-25h3c12 0 21-10 21-21v-11l-1-5a73 73 0 0 0 66-6h11c10 0 19 8 19 19v11a7 7 0 1 0 15 0v-11c0-5-1-9-3-13h8c7 0 13-6 13-12V217c0-55-45-100-101-100zm-93 159v5h-12c-3 0-6 2-7 6-2 9-10 15-19 15h-39c-2 0-4 0-6 2v-28c0-22 19-40 42-40 22 0 41 18 41 40zm-86 77c-3 0-6-3-6-6v-11c0-4 3-6 6-6h1v23zm23-167v5c-2-4-6-7-11-7h-22v-7c0-12-4-24-10-33 24 0 43 19 43 42zM23 265c-4 0-8-3-8-7v-13c1-4 4-8 8-8h3v28zm3-74v-14c0-26 22-47 48-47 27 0 48 21 48 47v7H37c-5 0-9 3-11 7zm15 8h114v35a55 55 0 0 0-20 42v31a57 57 0 0 1-95-42v-66zm98 223v75H30V344c0-11 8-19 19-19h11a73 73 0 0 0 67 5l-1 6v11c0 11 10 21 21 21h3c2 9 6 18 12 25-13 3-23 15-23 29zm24-69v-36h32c14 0 26-9 32-21h35v57c0 27-22 49-49 49-28 0-50-22-50-49zm85-72v-5c0-10-3-20-8-28 19 1 35 17 35 36v1c-2-2-5-4-9-4zm36 66c0 3-3 6-6 6h-1v-23h1c3 0 6 2 6 6zm6-39v-24c0-17-9-32-22-41v-22h52c11 0 21-4 28-12 7 8 17 12 27 12h8v44c0 31-26 56-57 56-14 0-26-5-36-13zm122 8h-18c-4-3-8-4-13-5 11-13 17-29 17-46v-48c0-6-5-11-11-11h-12c-7 0-14-3-18-10a11 11 0 0 0-18 0c-5 7-11 10-19 10h-56c-6 0-11 5-11 11v18l-14-2v-16c0-47 39-85 87-85 47 0 86 38 86 85zm0 0"/><path d="M307 255v-17a7 7 0 1 0-15 0v17a7 7 0 1 0 15 0zm0 0M352 231c-4 0-7 3-7 7v17a7 7 0 1 0 15 0v-17c0-4-4-7-8-7zm0 0M198 345v-15a8 8 0 0 0-15 0v15a7 7 0 1 0 15 0zm0 0M234 323c-4 0-7 3-7 7v15a7 7 0 1 0 15 0v-15c0-4-4-7-8-7zm0 0M203 150a16 16 0 0 0 22 0l26-26a7 7 0 1 0-10-11l-27 26h-1l-69-68a32 32 0 0 1 0-46c7-7 15-10 24-10s17 3 23 10l18 17c2 2 7 2 10 0l17-17c7-7 15-10 24-10a33 33 0 0 1 33 33c0 8-4 17-10 23l-16 16a7 7 0 1 0 10 11l17-16a47 47 0 0 0 0-68 48 48 0 0 0-68 0l-12 12-12-12a48 48 0 0 0-68 0 47 47 0 0 0 0 68zm0 0M75 278c0 12 11 23 23 23 13 0 24-11 24-23a7 7 0 1 0-15 0c0 4-4 7-9 7-4 0-8-3-8-7a8 8 0 0 0-15 0zm0 0M342 270c-4 0-7 3-7 8 0 4-4 8-9 8-4 0-8-4-8-8a7 7 0 1 0-15 0c0 12 11 23 23 23 13 0 24-11 24-23 0-5-4-8-8-8zm0 0M229 359c-4 0-7 3-7 7s-4 8-8 8-8-4-8-8a7 7 0 1 0-15 0c0 13 10 23 23 23s23-10 23-23c0-4-3-7-8-7zm0 0"/></svg>