<svg height="512pt" viewBox="-26 0 512 512" width="512pt" xmlns="http://www.w3.org/2000/svg"><path d="m396.617188 360.316406c0 19.882813-16.117188 36-36 36-19.882813 0-36-16.117187-36-36 0-19.878906 16.117187-36 36-36 19.882812 0 36 16.121094 36 36zm0 0" fill="#c9f3ff"/><g fill="#f48cd4"><path d="m450.261719 230c0 19.878906-16.117188 36-36 36-19.882813 0-36-16.121094-36-36 0-19.882812 16.117187-36 36-36 19.882812 0 36 16.117188 36 36zm0 0"/><path d="m82 230c0 19.878906-16.117188 36-36 36s-36-16.121094-36-36c0-19.882812 16.117188-36 36-36s36 16.117188 36 36zm0 0"/><path d="m266.261719 414.8125c0 19.882812-16.117188 36-36 36-19.882813 0-36-16.117188-36-36s16.117187-36 36-36c19.882812 0 36 16.117188 36 36zm0 0"/><path d="m266.261719 46c0 19.882812-16.117188 36-36 36-19.882813 0-36-16.117188-36-36s16.117187-36 36-36c19.882812 0 36 16.117188 36 36zm0 0"/></g><path d="m136.21875 99.917969c0 19.882812-16.117188 36-36 36s-36-16.117188-36-36c0-19.882813 16.117188-36 36-36s36 16.117187 36 36zm0 0" fill="#c9f3ff"/><path d="m135.828125 360.894531c0 19.882813-16.117187 36-36 36s-36-16.117187-36-36c0-19.882812 16.117187-36 36-36s36 16.117188 36 36zm0 0" fill="#c9f3ff"/><path d="m396.617188 100.105469c0 19.882812-16.117188 36-36 36-19.882813 0-36-16.117188-36-36 0-19.882813 16.117187-36 36-36 19.882812 0 36 16.117187 36 36zm0 0" fill="#c9f3ff"/><path d="m229.222656 491.996094h-.160156c-5.523438 0-10 4.480468-10 10 0 5.523437 4.476562 10 10 10h.160156c5.523438 0 10-4.476563 10-10 0-5.519532-4.476562-10-10-10zm0 0"/><path d="m460.261719 230c0-23.828125-18.210938-43.476562-41.445313-45.773438-4.6875-19.398437-12.304687-37.816406-22.699218-54.898437 6.554687-7.953125 10.5-18.136719 10.5-29.226563 0-25.363281-20.636719-45.996093-46-45.996093-11.027344 0-21.164063 3.902343-29.097657 10.402343-17.25-10.585937-35.859375-18.320312-55.484375-23.0625-2.292968-23.234374-21.945312-41.445312-45.773437-41.445312-23.824219 0-43.476563 18.210938-45.773438 41.441406-19.492187 4.707032-37.988281 12.375-55.15625 22.863282-18.050781-14.78125-44.800781-13.75-61.640625 3.085937-16.832031 16.835937-17.863281 43.578125-3.097656 61.628906-10.496094 17.167969-18.167969 35.671875-22.882812 55.183594-23.359376 2.171875-41.710938 21.878906-41.710938 45.796875s18.351562 43.621094 41.710938 45.792969c4.734374 19.597656 12.449218 38.167969 23.007812 55.390625-7.042969 8.296875-10.890625 18.707031-10.890625 29.710937 0 12.289063 4.785156 23.839844 13.472656 32.527344 8.96875 8.96875 20.746094 13.449219 32.527344 13.449219 10.632813 0 21.261719-3.667969 29.828125-10.976563 5.03125 3.0625 10.175781 5.875 15.429688 8.449219l-34.0625 87.652344h-59.796876c-5.523437 0-10 4.480468-10 10 0 5.523437 4.476563 10 10 10h66.574219c.019531 0 .042969.003906.0625.003906.027344 0 .050781-.003906.078125-.003906h72.1875c5.523438 0 10-4.476563 10-10 0-5.519532-4.476562-10-10-10h-57.648437l31.007812-79.796875c6.835938 2.503906 13.820313 4.617187 20.9375 6.339843 1.902344 23.625 21.726563 42.273438 45.835938 42.273438s43.929687-18.644531 45.835937-42.273438c7.078125-1.710937 14.023438-3.816406 20.820313-6.300781l31 79.757813h-57.789063c-5.523437 0-10 4.480468-10 10 0 5.523437 4.476563 10 10 10h72.328125c.023438 0 .050781.003906.078125.003906.019532 0 .042969-.003906.0625-.003906h66.117188c5.523437 0 10-4.476563 10-10 0-5.519532-4.476563-10-10-10h-59.339844l-34.042969-87.597656c5.40625-2.644532 10.703125-5.554688 15.878907-8.71875 8.492187 7.074218 18.949218 10.617187 29.40625 10.617187 11.78125 0 23.5625-4.484375 32.527343-13.453125 16.933594-16.933594 17.871094-43.886719 2.832031-61.941406 10.476563-17.148438 18.132813-35.632813 22.839844-55.128906 23.234375-2.296876 41.445313-21.949219 41.445313-45.773438zm-124.425781 91.570312-72.402344-72.402343c1.644531-2.847657 2.9375-5.921875 3.8125-9.164063h102.125c3.449218 15.488282 14.722656 28.054688 29.449218 33.320313-4.074218 15.941406-10.367187 31.109375-18.789062 45.289062-14.113281-6.550781-30.878906-5.558593-44.195312 2.957031zm-211.699219.28125c-13.132813-8.175781-29.511719-9.117187-43.390625-2.808593-8.5625-14.324219-14.949219-29.667969-19.066406-45.800781 14.609374-5.316407 25.777343-17.835938 29.210937-33.238282h102.125c.875 3.242188 2.164063 6.316406 3.808594 9.160156zm-23.917969-175.957031c8.546875 0 17.089844-2.371093 24.5625-7.09375l72.039062 72.035157c-1.644531 2.847656-2.9375 5.921874-3.808593 9.167968h-102.121094c-3.425781-15.410156-14.597656-27.933594-29.210937-33.25 4.070312-15.945312 10.355468-31.121094 18.773437-45.308594 6.234375 2.960938 12.996094 4.449219 19.765625 4.449219zm119.910156-55.035156v102.019531c-3.246094.878906-6.320312 2.167969-9.167968 3.816406l-71.996094-71.996093c8.585937-13.421875 9.519531-30.355469 2.789062-44.539063 14.152344-8.386718 29.292969-14.65625 45.183594-18.71875 5.25 14.683594 17.761719 25.933594 33.191406 29.417969zm53.460938-29.425781c16.011718 4.09375 31.257812 10.433594 45.496094 18.910156-2.863282 5.992188-4.46875 12.691406-4.46875 19.761719 0 8.914062 2.558593 17.242187 6.96875 24.296875l-72.289063 72.292968c-2.847656-1.644531-5.925781-2.9375-9.171875-3.8125v-101.960937c15.558594-3.414063 28.1875-14.714844 33.464844-29.488281zm87.027344 84.667968c7.011718 0 13.65625-1.582031 19.609374-4.398437 8.316407 14.085937 14.546876 29.15625 18.59375 44.96875-14.730468 5.265625-26.007812 17.839844-29.453124 33.332031h-102.117188c-.875-3.246094-2.167969-6.320312-3.8125-9.167968l72.164062-72.160157c7.207032 4.691407 15.796876 7.425781 25.015626 7.425781zm-130.488282 102.34375c-10.167968 0-18.445312-8.277343-18.445312-18.445312 0-10.171875 8.277344-18.445312 18.445312-18.445312 10.171875 0 18.449219 8.273437 18.449219 18.445312 0 10.167969-8.277344 18.445312-18.449219 18.445312zm210.132813-18.445312c0 14.335938-11.664063 26-26 26-13.855469 0-25.210938-10.890625-25.960938-24.5625.070313-.46875.117188-.945312.117188-1.433594 0-.488281-.046875-.964844-.117188-1.4375.746094-13.671875 12.105469-24.566406 25.960938-24.566406 14.335937 0 26 11.660156 26 26zm-79.644531-155.894531c14.335937 0 26 11.660156 26 25.996093 0 14.339844-11.664063 26-26 26-6.734376 0-12.882813-2.574218-17.507813-6.792968-.308594-.433594-.652344-.855469-1.042969-1.246094-.328125-.328125-.675781-.617188-1.035156-.890625-3.988281-4.570313-6.414062-10.539063-6.414062-17.070313 0-14.335937 11.664062-25.996093 26-25.996093zm-130.355469-54.105469c14.335937 0 26 11.664062 26 26 0 13.679688-10.621094 24.914062-24.046875 25.917969-.671875-.140625-1.371094-.222657-2.085938-.222657-.695312 0-1.375.074219-2.027344.207032-13.328124-1.101563-23.839843-12.292969-23.839843-25.902344 0-14.335938 11.664062-26 26-26zm-148.429688 61.535156c5.070313-5.070312 11.726563-7.605468 18.386719-7.605468 6.65625 0 13.316406 2.535156 18.382812 7.605468 9.558594 9.550782 10.101563 24.753906 1.644532 34.957032-.734375.425781-1.429688.941406-2.058594 1.570312-.613281.613281-1.121094 1.292969-1.542969 2.011719-10.199219 8.324219-25.300781 7.738281-34.808593-1.773438-10.140626-10.136719-10.140626-26.628906-.003907-36.765625zm-61.832031 148.464844c0-14.339844 11.664062-26 26-26 13.820312 0 25.15625 10.839844 25.949219 24.464844-.078125.503906-.128907 1.015625-.128907 1.539062 0 .523438.050782 1.035156.128907 1.535156-.800781 13.621094-12.128907 24.460938-25.949219 24.460938-14.335938 0-26-11.664062-26-26zm61.445312 149.277344c-4.914062-4.910156-7.617187-11.4375-7.617187-18.382813 0-6.945312 2.707031-13.472656 7.617187-18.386719 5.066407-5.066406 11.726563-7.601562 18.382813-7.601562s13.316406 2.535156 18.386719 7.601562c10.136718 10.140626 10.136718 26.632813 0 36.769532-10.136719 10.140625-26.632813 10.140625-36.769532 0zm60.296876.546875c6.351562-14.097657 5.242187-30.761719-3.328126-43.964844l54.4375-54.4375-40.496093 104.214844c-3.59375-1.804688-7.132813-3.746094-10.613281-5.8125zm78.152343-112.773438c.078125.019531.15625.042969.234375.066407v102.835937c-15.167968 3.425781-27.519531 14.355469-32.921875 28.675781-5.589843-1.417968-11.082031-3.113281-16.472656-5.070312zm10.367188 173.761719c-14.335938 0-26-11.664062-26-26s11.664062-26 26-26c14.335937 0 26 11.664062 26 26s-11.664063 26-26 26zm43.050781-42.183594c-5.433594-14.40625-17.894531-25.382812-33.183594-28.738281v-102.773437c.117188-.03125.234375-.066407.351563-.101563l49.191406 126.578125c-5.355469 1.941406-10.808594 3.625-16.359375 5.035156zm-5.691406-116.988281 54.113281 54.113281c-8.390625 13.28125-9.335937 29.953125-2.8125 43.992188-3.5625 2.113281-7.183594 4.09375-10.863281 5.9375zm111.382812 97.0625c-10.136718 10.136719-26.632812 10.136719-36.769531 0s-10.136719-26.632813 0-36.769531c5.070313-5.070313 11.726563-7.605469 18.382813-7.605469 6.660156 0 13.320312 2.535156 18.386718 7.605469 10.136719 10.136718 10.136719 26.632812 0 36.769531zm0 0"/></svg>