<svg height="512pt" viewBox="-26 0 512 512" width="512pt" xmlns="http://www.w3.org/2000/svg"><path d="M396.617 360.316c0 19.883-16.117 36-36 36s-36-16.117-36-36c0-19.879 16.117-36 36-36s36 16.121 36 36zm0 0" fill="#c9f3ff"/><path d="M450.262 230c0 19.879-16.117 36-36 36s-36-16.121-36-36c0-19.883 16.117-36 36-36s36 16.117 36 36zM82 230c0 19.879-16.117 36-36 36s-36-16.121-36-36c0-19.883 16.117-36 36-36s36 16.117 36 36zm184.262 184.813c0 19.882-16.117 36-36 36s-36-16.118-36-36 16.117-36 36-36 36 16.117 36 36zm0-368.813c0 19.883-16.117 36-36 36s-36-16.117-36-36 16.117-36 36-36 36 16.117 36 36zm0 0" fill="#f48cd4"/><path d="M136.219 99.918c0 19.883-16.117 36-36 36s-36-16.117-36-36 16.117-36 36-36 36 16.117 36 36zm-.391 260.977c0 19.882-16.117 36-36 36s-36-16.118-36-36c0-19.883 16.117-36 36-36s36 16.117 36 36zm260.789-260.79c0 19.883-16.117 36-36 36s-36-16.117-36-36c0-19.882 16.117-36 36-36s36 16.118 36 36zm0 0" fill="#c9f3ff"/><path d="M229.223 491.996h-.16c-5.524 0-10 4.48-10 10 0 5.524 4.476 10 10 10h.16c5.523 0 10-4.476 10-10 0-5.52-4.477-10-10-10zm0 0"/><path d="M460.262 230c0-23.828-18.211-43.477-41.446-45.773a192.151 192.151 0 0 0-22.699-54.899c6.555-7.953 10.5-18.137 10.5-29.226 0-25.364-20.637-45.997-46-45.997-11.027 0-21.164 3.903-29.097 10.403a191.975 191.975 0 0 0-55.485-23.063C273.742 18.211 254.09 0 230.262 0c-23.824 0-43.477 18.21-45.774 41.441-19.492 4.707-37.988 12.375-55.156 22.864-18.05-14.782-44.8-13.75-61.64 3.086-16.833 16.836-17.864 43.578-3.098 61.629a191.872 191.872 0 0 0-22.883 55.183C18.35 186.375 0 206.082 0 230s18.352 43.621 41.71 45.793a191.833 191.833 0 0 0 23.009 55.39c-7.043 8.297-10.89 18.708-10.89 29.712 0 12.289 4.784 23.84 13.472 32.527 8.969 8.969 20.746 13.45 32.527 13.45 10.633 0 21.262-3.669 29.828-10.977a192.835 192.835 0 0 0 15.43 8.449l-34.063 87.652H51.227c-5.524 0-10 4.48-10 10 0 5.524 4.476 10 10 10H117.8c.02 0 .043.004.062.004.028 0 .051-.004.078-.004h72.188c5.523 0 10-4.476 10-10 0-5.52-4.477-10-10-10H132.48l31.008-79.797a192.531 192.531 0 0 0 20.938 6.34c1.902 23.625 21.726 42.273 45.836 42.273s43.93-18.644 45.836-42.273a192.096 192.096 0 0 0 20.82-6.3l31 79.757h-57.79c-5.523 0-10 4.48-10 10 0 5.524 4.477 10 10 10h72.329c.023 0 .05.004.078.004.02 0 .043-.004.063-.004h66.117c5.523 0 10-4.476 10-10 0-5.52-4.477-10-10-10h-59.34l-34.043-87.598a193.256 193.256 0 0 0 15.879-8.718c8.492 7.074 18.95 10.617 29.406 10.617 11.781 0 23.563-4.485 32.528-13.453 16.933-16.934 17.87-43.887 2.832-61.942a191.728 191.728 0 0 0 22.84-55.129c23.234-2.296 41.445-21.949 41.445-45.773zm-124.426 91.57l-72.402-72.402a38.254 38.254 0 0 0 3.812-9.164h102.125c3.45 15.488 14.723 28.055 29.45 33.32a171.717 171.717 0 0 1-18.79 45.29c-14.113-6.552-30.879-5.56-44.195 2.956zm-211.7.282c-13.132-8.176-29.511-9.118-43.39-2.809a171.855 171.855 0 0 1-19.066-45.8c14.61-5.317 25.777-17.837 29.21-33.24h102.126a38.15 38.15 0 0 0 3.808 9.161zM100.22 145.895c8.547 0 17.09-2.372 24.562-7.094l72.04 72.035a38.049 38.049 0 0 0-3.81 9.168H90.892c-3.426-15.41-14.598-27.934-29.211-33.25a171.854 171.854 0 0 1 18.773-45.309 46.077 46.077 0 0 0 19.766 4.45zm119.91-55.036v102.02a38.227 38.227 0 0 0-9.168 3.816L138.965 124.7c8.586-13.422 9.52-30.355 2.789-44.539a171.962 171.962 0 0 1 45.184-18.719c5.25 14.684 17.761 25.934 33.19 29.418zm53.46-29.425a172.036 172.036 0 0 1 45.497 18.91 45.708 45.708 0 0 0-4.469 19.761 45.696 45.696 0 0 0 6.969 24.297l-72.29 72.293a38.245 38.245 0 0 0-9.171-3.812V90.922c15.559-3.414 28.188-14.715 33.465-29.488zm87.028 84.668a45.727 45.727 0 0 0 19.61-4.399 172.255 172.255 0 0 1 18.593 44.969c-14.73 5.266-26.007 17.84-29.453 33.332H267.25a38.216 38.216 0 0 0-3.812-9.168l72.164-72.16a45.707 45.707 0 0 0 25.015 7.426zM230.13 248.445c-10.168 0-18.445-8.277-18.445-18.445 0-10.172 8.277-18.445 18.445-18.445 10.172 0 18.45 8.273 18.45 18.445 0 10.168-8.278 18.445-18.45 18.445zM440.262 230c0 14.336-11.664 26-26 26-13.856 0-25.211-10.89-25.961-24.563.07-.468.117-.945.117-1.433 0-.488-.047-.965-.117-1.438.746-13.671 12.105-24.566 25.96-24.566 14.337 0 26 11.66 26 26zM360.617 74.105c14.336 0 26 11.66 26 25.997 0 14.34-11.664 26-26 26-6.734 0-12.883-2.575-17.508-6.793a9.744 9.744 0 0 0-1.043-1.246 10.063 10.063 0 0 0-1.035-.891c-3.988-4.57-6.414-10.54-6.414-17.07 0-14.336 11.664-25.997 26-25.997zM230.262 20c14.336 0 26 11.664 26 26 0 13.68-10.621 24.914-24.047 25.918a10.185 10.185 0 0 0-2.086-.223c-.695 0-1.375.075-2.027.207-13.329-1.101-23.84-12.293-23.84-25.902 0-14.336 11.664-26 26-26zM81.832 81.535c5.07-5.07 11.727-7.605 18.387-7.605 6.656 0 13.316 2.535 18.383 7.605 9.558 9.55 10.101 24.754 1.644 34.957a9.952 9.952 0 0 0-2.058 1.57 9.956 9.956 0 0 0-1.543 2.012c-10.2 8.324-25.301 7.739-34.81-1.773-10.14-10.137-10.14-26.63-.003-36.766zM20 230c0-14.34 11.664-26 26-26 13.82 0 25.156 10.84 25.95 24.465a10.018 10.018 0 0 0-.13 1.539c0 .523.051 1.035.13 1.535C71.147 245.16 59.82 256 46 256c-14.336 0-26-11.664-26-26zm61.445 149.277c-4.914-4.91-7.617-11.437-7.617-18.382 0-6.946 2.707-13.473 7.617-18.387 5.067-5.067 11.727-7.602 18.383-7.602s13.317 2.535 18.387 7.602c10.137 10.14 10.137 26.633 0 36.77-10.137 10.14-26.633 10.14-36.77 0zm60.297.547c6.352-14.097 5.242-30.762-3.328-43.965l54.438-54.437-40.497 104.215a171.938 171.938 0 0 1-10.613-5.813zm78.153-112.773c.078.02.156.043.234.066v102.836c-15.168 3.426-27.52 14.356-32.922 28.676a172.67 172.67 0 0 1-16.473-5.07zm10.367 173.761c-14.336 0-26-11.664-26-26s11.664-26 26-26 26 11.665 26 26-11.664 26-26 26zm43.05-42.183c-5.433-14.406-17.894-25.383-33.183-28.738V267.117c.117-.031.234-.066.351-.101l49.192 126.578a172.896 172.896 0 0 1-16.36 5.035zm-5.69-116.988l54.112 54.113c-8.39 13.281-9.336 29.953-2.812 43.992a174.588 174.588 0 0 1-10.863 5.938zm111.382 97.062c-10.137 10.137-26.633 10.137-36.77 0s-10.136-26.633 0-36.77c5.07-5.07 11.727-7.605 18.383-7.605 6.66 0 13.32 2.535 18.387 7.606 10.137 10.136 10.137 26.632 0 36.77zm0 0"/></svg>