<svg viewBox="0 0 480 480" xmlns="http://www.w3.org/2000/svg"><path d="M232 120a112 112 0 1 1-224 0 112 112 0 0 1 224 0zm0 0" fill="#337eb0"/><path d="M459 248c-58 0-114 23-155 64-44-44-116-44-160 0V192l18-8a50 50 0 0 0-21-96c-22 0-42 14-51 34L8 296v72l112 104h352V248zm0 0" fill="#fec9a3"/><path d="M8 320v48l112 104h352v-48H145c-16 0-32-6-43-17zm0 0" fill="#fac39b"/><path d="M274 330l24-24 12 12-24 24zm0 0" fill="#f7bb8f"/><path d="M49 285l26-64 15 6-27 64zm33-80l7-16 14 6-6 16zm0 0" fill="#fedac1"/><path d="M472 248h-13c-47 0-93 15-131 43v181h144zm0 0" fill="#f05d46"/><path d="M472 472H328v-48s56 4 88-8c20-8 39-19 56-32zm0 0" fill="#e3523b"/><path d="M360 120a112 112 0 1 1-224 0 112 112 0 0 1 224 0zm0 0" fill="#388bc2"/><path d="M320 120a72 72 0 1 1-144 0 72 72 0 0 1 144 0zm0 0" fill="#4398d1"/><path d="M280 120a32 32 0 1 1-64 0 32 32 0 0 1 64 0zm0 0" fill="#cfcfcd"/><path d="M472 240h-13c-58 0-113 22-155 61-43-38-106-40-152-6v-59c11-4 22-8 32-15a120 120 0 1 0 0-202A120 120 0 0 0 40 209L1 293l-1 3v72l3 6 112 104 5 2h352c4 0 8-4 8-8V248c0-4-4-8-8-8zm-320-21v-22l3-1 15 15-18 8zm96-203a104 104 0 1 1 0 208 104 104 0 0 1 0-208zM16 120a104 104 0 0 1 154-91c-16 14-28 32-35 52-23 2-43 17-52 38l-36 75c-20-19-31-46-31-74zm304 344H123L16 365v-67l82-173c5-14 17-24 32-28-5 30 0 60 16 86l-5 2c-3 1-5 4-5 7v120a8 8 0 0 0 14 6c39-39 101-41 142-6l-18 18 12 12 24-24 10-10zm144 0H336V296h-1c36-26 79-40 124-40h5zm0 0"/><path d="M248 200a80 80 0 1 0 0-160 80 80 0 0 0 0 160zm0-144a64 64 0 1 1 0 128 64 64 0 0 1 0-128zm0 0"/><path d="M248 160a40 40 0 1 0 0-80 40 40 0 0 0 0 80zm0-64a24 24 0 1 1 0 48 24 24 0 0 1 0-48zM49 285l26-64 15 6-27 64zm33-80l7-16 14 6-6 16zm0 0"/></svg>