<svg xmlns="http://www.w3.org/2000/svg" viewBox="0 0 502 502"><path d="M352.583 211.919c0-67.689-54.588-122.629-122.143-123.197-67.974-.572-124.261 55.222-124.26 123.198 0 33.247 13.171 63.416 34.579 85.577 25.593 26.494 40.024 61.808 40.024 98.645v13.156h97.197v-13.15c0-36.544 13.862-71.932 39.432-98.042 21.757-22.217 35.171-52.634 35.171-86.187z" fill="#fcc54e"/><path fill="#3cb7c6" d="M180.783 409.297h97.197v57.125h-97.197z"/><path d="M253.254 466.422c0 14.126-11.452 25.578-25.578 25.578s-25.578-11.452-25.578-25.578h51.156z" fill="#fff"/><path d="M230.523 78.722c-35.583-.342-69.221 13.48-94.756 38.802-25.528 25.316-39.587 58.839-39.587 94.396 0 34.708 13.278 67.567 37.387 92.524 24 24.844 37.216 57.409 37.216 91.697v70.281c0 5.523 4.477 10 10 10h12.756C197.871 491.185 211.53 502 227.676 502s29.805-10.815 34.138-25.578h16.166c5.523 0 10-4.477 10-10v-70.275c0-34.627 12.99-66.961 36.576-91.044 24.522-25.04 38.027-58.133 38.027-93.185 0-35.38-13.723-68.697-38.64-93.812-24.902-25.1-58.079-39.086-93.42-39.384zM227.676 482c-4.787 0-9.076-2.17-11.936-5.578h23.872c-2.86 3.408-7.149 5.578-11.936 5.578zm40.304-25.578h-77.197v-37.125h77.197v37.125zm42.287-165.313c-27.269 27.844-42.287 65.148-42.287 105.039v3.15h-77.197v-3.156c0-39.5-15.211-77-42.832-105.593-20.488-21.208-31.771-49.133-31.771-78.629 0-30.183 11.958-58.663 33.67-80.194 21.72-21.538 50.338-33.226 80.505-33.005 61.882.521 112.228 51.301 112.228 113.197 0 29.789-11.477 57.912-32.316 79.191zM229.381 55.584c5.523 0 10-4.477 10-10V10c0-5.523-4.477-10-10-10s-10 4.477-10 10v35.584c0 5.523 4.477 10 10 10zM85.246 29.896a9.988 9.988 0 0 0 8.099 4.123 9.96 9.96 0 0 0 5.87-1.91c4.468-3.247 5.458-9.5 2.212-13.968l-7.108-9.783C91.073 3.89 84.82 2.9 80.351 6.146c-4.468 3.247-5.458 9.5-2.212 13.968l7.107 9.782zm39.483 54.343a9.988 9.988 0 0 0 8.099 4.123 9.96 9.96 0 0 0 5.87-1.91c4.468-3.246 5.458-9.5 2.212-13.968l-19.113-26.308c-3.246-4.468-9.499-5.459-13.968-2.212-4.468 3.246-5.458 9.5-2.212 13.968l19.112 26.307zM37.031 160.15l33.843 10.996a10.01 10.01 0 0 0 3.092.492c4.215 0 8.136-2.687 9.509-6.913 1.707-5.253-1.168-10.894-6.42-12.601l-33.843-10.996c-5.251-1.705-10.894 1.168-12.601 6.42-1.707 5.254 1.167 10.895 6.42 12.602zm47.777 100.36c-1.707-5.253-7.346-8.126-12.601-6.42l-33.843 10.996c-5.252 1.707-8.127 7.348-6.42 12.601 1.373 4.226 5.293 6.913 9.509 6.913a10.01 10.01 0 0 0 3.092-.492l33.843-10.996c5.252-1.708 8.126-7.349 6.42-12.602zm17.818 131.158c-4.467-3.246-10.721-2.255-13.968 2.212l-8.903 12.253c-3.246 4.468-2.256 10.722 2.212 13.968a9.952 9.952 0 0 0 5.87 1.91 9.99 9.99 0 0 0 8.099-4.123l8.903-12.253c3.246-4.467 2.256-10.72-2.213-13.967z"/><path d="M134.544 347.736c-4.468-3.246-10.722-2.255-13.968 2.212l-8.845 12.175c-3.246 4.468-2.255 10.722 2.212 13.968a9.952 9.952 0 0 0 5.87 1.91 9.99 9.99 0 0 0 8.099-4.123l8.845-12.175c3.246-4.467 2.255-10.721-2.213-13.967zm203.803-10.841c-3.246-4.468-9.499-5.459-13.968-2.212-4.468 3.247-5.458 9.5-2.212 13.968l20.916 28.789a9.988 9.988 0 0 0 8.099 4.123 9.96 9.96 0 0 0 5.87-1.91c4.468-3.247 5.458-9.5 2.212-13.968l-20.917-28.79zm87.698-75.911l-33.843-10.997c-5.252-1.705-10.894 1.168-12.601 6.42-1.707 5.252 1.168 10.894 6.42 12.601l33.843 10.997a10.01 10.01 0 0 0 3.092.492c4.215 0 8.136-2.687 9.509-6.913 1.707-5.251-1.167-10.893-6.42-12.6zm45.345-130.617c-1.706-5.252-7.347-8.127-12.601-6.42l-14.678 4.769c-5.252 1.707-8.127 7.348-6.42 12.601 1.373 4.226 5.293 6.913 9.509 6.913a10.01 10.01 0 0 0 3.092-.492l14.678-4.769c5.252-1.708 8.126-7.349 6.42-12.602zm-83.613 37.169a10.01 10.01 0 0 0 3.092-.492l25.994-8.446c5.252-1.707 8.127-7.348 6.42-12.601-1.707-5.252-7.347-8.127-12.601-6.42l-25.994 8.446c-5.252 1.707-8.127 7.348-6.42 12.601 1.374 4.225 5.294 6.912 9.509 6.912zm-66.887-83.62a9.952 9.952 0 0 0 5.87 1.91 9.99 9.99 0 0 0 8.099-4.123l20.916-28.789c3.246-4.468 2.255-10.722-2.212-13.968-4.469-3.246-10.722-2.255-13.968 2.212l-20.916 28.789c-3.248 4.469-2.257 10.722 2.211 13.969zm-32.541 51.633c-11.289-8.76-24.609-14.981-38.521-17.992-5.395-1.169-10.721 2.26-11.889 7.659-1.168 5.398 2.261 10.721 7.659 11.889 11.007 2.382 21.55 7.308 30.491 14.245a9.954 9.954 0 0 0 6.124 2.1 9.981 9.981 0 0 0 7.907-3.87c3.385-4.363 2.592-10.645-1.771-14.031zm-85.435-16.483c-41.096 11.729-69.797 49.799-69.797 92.579 0 5.523 4.477 10 10 10s10-4.477 10-10c0-33.895 22.735-64.056 55.287-73.346 5.311-1.516 8.387-7.05 6.872-12.361-1.518-5.31-7.052-8.388-12.362-6.872z"/></svg>