<svg version="1" xmlns="http://www.w3.org/2000/svg" viewBox="0 0 53 53"><path d="M27 9a16 16 0 0 0-5 31v10h2v3h6v-3h2V40a16 16 0 0 0-5-31z" fill="#efce4a"/><g fill="#efce4a"><path d="M27 0l-1 1v4a1 1 0 1 0 2 0V1l-1-1zM51 24h-4a1 1 0 1 0 0 2h4a1 1 0 1 0 0-2zM7 24H3a1 1 0 1 0 0 2h4a1 1 0 1 0 0-2zM43 7l-3 3a1 1 0 1 0 1 2l3-3a1 1 0 1 0-1-2zM12 38l-3 3a1 1 0 1 0 1 2l3-3a1 1 0 1 0-1-2zM41 38a1 1 0 1 0-1 2l3 3a1 1 0 0 0 1 0v-2l-3-3zM10 7a1 1 0 1 0-1 2l3 3a1 1 0 0 0 1 0v-2l-3-3z"/></g><path d="M16 26l-1-1c0-7 5-12 12-12a1 1 0 1 1 0 2c-6 0-10 4-10 10l-1 1z" fill="#f7e6a1"/><path fill="#556080" d="M22 43v7h2v3h6v-3h2v-7z"/></svg>