<svg viewBox="-24 0 480 480" xmlns="http://www.w3.org/2000/svg"><path d="M312 472H104c44 0 80-36 80-80V160h48v192s40-64 64-40-64 80-64 80c0 44 36 80 80 80zm0 0" fill="#d3843d"/><path d="M348 112c-12 0-25 3-36 9v-1C312 63 266 8 208 8c-57 0-104 55-104 112l1 9a64 64 0 1 0-25 118v1a48 48 0 0 0 86 30c21 16 50 13 68-7a44 44 0 0 0 68-22 76 76 0 1 0 46-137zm0 0" fill="#8ec13f"/><g fill="#c8d952"><path d="M369 191c-9 0-17-3-23-9a8 8 0 1 1 12-12 14 14 0 0 0 20 0 8 8 0 0 1 12 12c-6 6-13 9-21 9zm0 0M329 224c-9 0-17-4-23-9a8 8 0 0 1 12-12 14 14 0 0 0 20 0 8 8 0 0 1 12 12c-6 5-13 9-21 9zm0 0M80 183c-8 0-16-3-22-9a8 8 0 0 1 12-12 14 14 0 0 0 20 0 8 8 0 0 1 12 12c-6 6-14 9-22 9zm0 0M120 216c-8 0-16-4-22-9a8 8 0 0 1 12-12 14 14 0 0 0 21 0 8 8 0 0 1 11 12c-6 5-14 9-22 9zm0 0M177 103c-9 0-17-3-23-9a8 8 0 1 1 12-12 14 14 0 0 0 20 0 8 8 0 0 1 12 12c-6 6-13 9-21 9zm0 0M249 120c-9 0-17-4-23-9a8 8 0 0 1 12-12 14 14 0 0 0 20 0 8 8 0 0 1 12 12c-6 5-13 9-21 9zm0 0"/></g><path d="M348 104c-10 0-19 2-28 5C314 50 264 0 208 0 150 0 98 54 96 116a72 72 0 1 0-24 140h1a56 56 0 0 0 94 32l9 4v100c0 40-32 72-72 72a8 8 0 0 0 0 16h208a8 8 0 0 0 0-16c-38 0-69-30-72-68 16-10 65-45 68-71 1-7-1-14-6-19-6-5-13-8-21-7-15 1-30 16-41 29v-44a51 51 0 0 0 66-23 84 84 0 1 0 42-157zm-65 211c2-1 5 0 7 3 2 1 3 3 2 5-2 17-40 47-64 62-3 2-4 4-4 7 0 29 14 56 38 72H155c23-16 37-43 37-72v-96h4c10 0 19-2 28-7v63a8 8 0 0 0 15 4c9-15 30-40 44-41zm65-59c-15 0-29-5-41-14a8 8 0 0 0-12 4 36 36 0 0 1-56 19c-3-2-8-2-11 1a44 44 0 0 1-58 6c-3-3-8-2-11 1a40 40 0 0 1-71-25v-1c0-4-3-8-8-8l-1 1a56 56 0 0 1-60-37 56 56 0 0 1 81-67 8 8 0 0 0 13-8l-1-8c0-55 45-104 96-104s96 49 96 104v1a8 8 0 0 0 12 7 68 68 0 1 1 32 128zm0 0"/><path d="M378 170a14 14 0 0 1-20 0 8 8 0 0 0-12 12c6 6 14 9 23 9 8 0 15-3 21-9a8 8 0 0 0-12-12zm0 0M338 203a14 14 0 0 1-20 0 8 8 0 0 0-12 12c6 5 14 9 23 9 8 0 15-4 21-9a8 8 0 0 0-12-12zm0 0M102 162c-3-3-8-3-12 0a14 14 0 0 1-20 0 8 8 0 0 0-12 12c6 6 14 9 22 9s16-3 22-9c3-3 3-8 0-12zm0 0M131 195a14 14 0 0 1-21 0 8 8 0 0 0-12 12c6 5 14 9 22 9s16-4 22-9a8 8 0 0 0-11-12zm0 0M186 82a14 14 0 0 1-20 0 8 8 0 0 0-12 12c6 6 14 9 23 9 8 0 15-3 21-9a8 8 0 0 0-12-12zm0 0M258 99a14 14 0 0 1-20 0 8 8 0 0 0-12 12c6 5 14 9 23 9 8 0 15-4 21-9a8 8 0 0 0-12-12zm0 0"/></svg>