<?xml version="1.0" encoding="iso-8859-1"?>
<!-- Generator: Adobe Illustrator 19.0.0, SVG Export Plug-In . SVG Version: 6.00 Build 0)  -->
<svg version="1.1" id="Capa_1" xmlns="http://www.w3.org/2000/svg" xmlns:xlink="http://www.w3.org/1999/xlink" x="0px" y="0px"
	 viewBox="0 0 512.002 512.002" style="enable-background:new 0 0 512.002 512.002;" xml:space="preserve">
<g>
	<path style="fill:#F13D7C;" d="M230,150.001c-44.183,0-80,35.816-80,79.999c0,44.184,35.817,80,80,80c44.184,0,80-35.816,80-80
		C310,185.817,274.184,150.001,230,150.001L230,150.001z M230,210c11.047,0,20,8.954,20,20s-8.953,20.001-20,20.001
		c-11.045,0-20-8.955-20-20.001S218.955,210,230,210z"/>
	<path style="fill:#4BC1D7;" d="M230,150.001c44.184,0,80,35.816,80,79.999c0,44.184-35.816,80-80,80c-44.183,0-80-35.816-80-80
		C150,185.817,185.817,150.001,230,150.001L230,150.001z M368.554,218.048L368.554,218.048L368.554,218.048z M387.617,238.519
		v-29.605c0-11.258,8.578-20.469,19.065-20.469c10.485,0,19.064,9.215,19.064,20.469v88.705v7.068
		c0-10.676,7.713-19.512,17.451-20.397c4.518-17.743,6.804-35.98,6.804-54.289c0-121.503-98.497-220-220-220S10,108.497,10,230
		s98.498,220,220.001,220c35.755,0,70.971-8.714,102.601-25.39c-2.33-7.816-3.581-16.094-3.581-24.657v-28.681v-20.471
		c0-11.258,9.213-20.469,20.47-20.469v-91.814c0-11.26,8.578-20.471,19.064-20.471C379.039,218.048,387.617,227.267,387.617,238.519
		z"/>
	<path style="fill:#F1DBC8;" d="M349.49,238.519v91.814c-11.257,0-20.47,9.211-20.47,20.469v20.471v28.681
		c0,8.564,1.251,16.84,3.581,24.657c6.546,21.962,21.611,40.296,41.404,51.155v26.236h97.626V465.63
		C490.19,449.733,502,426.155,502,399.953v-68.945l0.002-4.47c0.004-11.25-8.579-20.471-19.065-20.471
		c-10.485,0-19.06,9.212-19.063,20.471v-21.852c0-11.255-8.579-20.471-19.065-20.471c-0.543,0-1.081,0.024-1.612,0.073
		c-9.738,0.886-17.451,9.722-17.451,20.397v-7.068v-88.705c0-11.254-8.579-20.469-19.064-20.469
		c-10.486,0-19.065,9.211-19.065,20.469v29.605c0-11.252-8.578-20.471-19.063-20.471C358.068,218.048,349.49,227.259,349.49,238.519
		z"/>
</g>
<path d="M503.722,305.27c-5.525-5.934-12.907-9.201-20.784-9.201c-3.441,0-6.742,0.634-9.809,1.79
	c-2.172-9.906-8.961-17.98-17.859-21.593c3.124-15.216,4.731-30.729,4.731-46.266c0-61.436-23.924-119.193-67.365-162.635
	S291.437,0,230.001,0C168.566,0,110.808,23.924,67.366,67.365C23.924,110.807,0,168.564,0,230s23.924,119.193,67.366,162.635
	C110.808,436.076,168.566,460,230.001,460c33.449,0,66.771-7.43,97.081-21.523c7.629,17.456,20.373,32.521,36.924,42.986v20.539
	c0,5.522,4.478,10,10,10h97.625c5.523,0,10-4.478,10-10v-31.927C500.984,451.817,512,426.522,512,399.953v-68.941l0.002-4.47
	C512.005,318.562,509.064,311.007,503.722,305.27z M230.001,440C114.206,440,20,345.794,20,230S114.206,20,230.001,20
	c115.794,0,210,94.206,210,210c0,14.079-1.446,28.137-4.255,41.929v-63.016c0-16.801-13.038-30.469-29.064-30.469
	s-29.065,13.668-29.065,30.469v0.66c-2.853-0.985-5.898-1.525-9.063-1.525c-16.025,0-29.064,13.669-29.064,30.471v83.508
	c-11.902,4.149-20.47,15.477-20.47,28.775v49.151c0,6.557,0.669,13.017,1.956,19.298C292.685,432.836,261.402,440,230.001,440z
	 M492,399.953c0,22.282-9.795,43.453-26.874,58.082c-0.093,0.079-0.174,0.167-0.263,0.249c-0.129,0.119-0.259,0.236-0.381,0.361
	c-0.121,0.124-0.233,0.253-0.347,0.381c-0.101,0.114-0.202,0.228-0.298,0.346c-0.113,0.142-0.219,0.287-0.324,0.434
	c-0.084,0.117-0.169,0.234-0.248,0.355c-0.098,0.148-0.187,0.3-0.275,0.452c-0.076,0.131-0.152,0.262-0.223,0.396
	c-0.075,0.145-0.145,0.293-0.213,0.441c-0.069,0.151-0.138,0.302-0.2,0.457c-0.056,0.138-0.104,0.278-0.153,0.418
	c-0.059,0.17-0.117,0.339-0.167,0.513c-0.04,0.135-0.072,0.273-0.105,0.409c-0.044,0.179-0.087,0.357-0.12,0.538
	c-0.027,0.146-0.047,0.293-0.067,0.439c-0.025,0.173-0.05,0.346-0.065,0.521c-0.016,0.17-0.02,0.34-0.026,0.511
	c-0.005,0.125-0.019,0.247-0.019,0.373V492h-77.625v-16.153c0-0.024,0-0.048,0-0.071v-0.012c0-0.026-0.004-0.053-0.004-0.079
	c-0.003-0.299-0.016-0.598-0.045-0.894c-0.015-0.15-0.042-0.298-0.064-0.446c-0.024-0.168-0.044-0.338-0.077-0.504
	c-0.037-0.194-0.088-0.384-0.138-0.574c-0.03-0.119-0.057-0.24-0.093-0.359c-0.059-0.196-0.129-0.388-0.199-0.579
	c-0.041-0.112-0.078-0.225-0.123-0.337c-0.072-0.176-0.154-0.347-0.235-0.518c-0.06-0.125-0.115-0.25-0.18-0.372
	c-0.076-0.146-0.161-0.284-0.245-0.425c-0.084-0.143-0.166-0.285-0.257-0.424c-0.075-0.114-0.157-0.223-0.237-0.333
	c-0.111-0.154-0.223-0.309-0.344-0.459c-0.075-0.093-0.157-0.18-0.236-0.27c-0.133-0.153-0.266-0.307-0.41-0.452
	c-0.09-0.091-0.186-0.175-0.28-0.263c-0.14-0.131-0.277-0.263-0.426-0.387c-0.139-0.116-0.286-0.222-0.433-0.331
	c-0.11-0.083-0.217-0.17-0.332-0.248c-0.289-0.198-0.586-0.383-0.896-0.549c-24.509-13.477-39.732-39.146-39.732-67.011v-49.151
	c0-5.772,4.696-10.469,10.47-10.469c5.522,0,10-4.478,10-10v-91.814c0-5.676,4.15-10.471,9.064-10.471
	c4.913,0,9.063,4.795,9.063,10.471v91.814c0,5.522,4.478,10,10,10c5.523,0,10-4.478,10-10v-91.814v-29.605
	c0-5.675,4.151-10.469,9.065-10.469c4.913,0,9.064,4.794,9.064,10.469v88.705v32.715c0,5.522,4.478,10,10,10s10-4.478,10-10v-25.646
	c0-5.676,4.15-10.471,9.064-10.471s9.065,4.795,9.065,10.471v21.849l-0.002,7.86c-0.001,5.523,4.475,10.001,9.997,10.003h0.003
	c5.521,0,9.998-4.476,10-9.997l0.002-7.86c0.001-5.677,4.152-10.473,9.063-10.473c2.265,0,4.447,1.005,6.147,2.831
	c1.882,2.022,2.918,4.732,2.917,7.635l-0.002,4.47c0,0,0,0.001,0,0.002c0,0,0,0.001,0,0.002v68.946H492z"/>
<path d="M230,65c44.074,0,85.509,17.163,116.673,48.328c3.906,3.903,10.236,3.905,14.143,0c3.905-3.905,3.905-10.237,0-14.143
	c-17.266-17.266-37.459-30.759-60.019-40.104C278.238,49.738,254.419,45,230,45C127.99,45,45,127.99,45,230c0,5.522,4.478,10,10,10
	s10-4.478,10-10C65,139.019,139.019,65,230,65z"/>
<path d="M230,110c21.036,0,41.784,5.559,60.001,16.077c4.784,2.762,10.899,1.122,13.66-3.66c2.762-4.783,1.123-10.898-3.66-13.66
	C278.748,96.486,254.542,90,230,90c-52.335,0-99.891,28.82-124.108,75.215c-2.556,4.897-0.658,10.938,4.237,13.493
	c1.479,0.771,3.061,1.137,4.619,1.137c3.606,0,7.09-1.956,8.874-5.374C144.38,134.703,185.142,110,230,110z"/>
<path d="M230,200c-16.542,0-29.999,13.458-29.999,30s13.457,30,29.999,30s30-13.458,30-30S246.542,200,230,200z M230,240
	c-5.514,0-9.999-4.486-9.999-10s4.485-10,9.999-10c5.514,0,10,4.486,10,10S235.514,240,230,240z"/>
<path d="M230,140c-49.626,0-90,40.374-90,90s40.374,90,90,90c49.627,0,90.001-40.374,90.001-90S279.627,140,230,140z M230,300
	c-38.598,0-70-31.402-70-70s31.402-70,70-70c38.599,0,70.001,31.402,70.001,70S268.599,300,230,300z"/>
<path d="M107.047,186.378c-5.345-1.406-10.81,1.794-12.209,7.137l-0.058,0.216c-1.449,5.329,1.696,10.824,7.026,12.272
	c0.878,0.239,1.761,0.354,2.629,0.354c4.401,0,8.434-2.929,9.644-7.38l0.104-0.39C115.584,193.244,112.389,187.778,107.047,186.378z
	"/>
<path d="M272.706,389.379c-13.924,3.73-28.292,5.622-42.706,5.622c-5.572,0-11.207-0.287-16.749-0.853
	c-5.496-0.555-10.403,3.439-10.964,8.933c-0.561,5.494,3.438,10.403,8.933,10.964c6.214,0.635,12.532,0.956,18.78,0.956
	c16.161,0,32.271-2.121,47.882-6.304c5.335-1.429,8.501-6.912,7.071-12.247C283.525,391.115,278.038,387.948,272.706,389.379z"/>
<path d="M187.523,389.439l-0.267-0.07c-5.337-1.409-10.811,1.778-12.219,7.119c-1.409,5.34,1.778,10.811,7.119,12.219l0.267,0.07
	c0.854,0.226,1.712,0.334,2.557,0.334c4.43,0,8.48-2.968,9.662-7.453C196.052,396.318,192.864,390.848,187.523,389.439z"/>
<g>
</g>
<g>
</g>
<g>
</g>
<g>
</g>
<g>
</g>
<g>
</g>
<g>
</g>
<g>
</g>
<g>
</g>
<g>
</g>
<g>
</g>
<g>
</g>
<g>
</g>
<g>
</g>
<g>
</g>
</svg>
