<svg xmlns="http://www.w3.org/2000/svg" viewBox="0 0 512.002 512.002"><path d="M230 150.001c-44.183 0-80 35.816-80 79.999 0 44.184 35.817 80 80 80 44.184 0 80-35.816 80-80 0-44.183-35.816-79.999-80-79.999zM230 210c11.047 0 20 8.954 20 20s-8.953 20.001-20 20.001c-11.045 0-20-8.955-20-20.001s8.955-20 20-20z" fill="#f13d7c"/><path d="M230 150.001c44.184 0 80 35.816 80 79.999 0 44.184-35.816 80-80 80-44.183 0-80-35.816-80-80 0-44.183 35.817-79.999 80-79.999zm138.554 68.047zm19.063 20.471v-29.605c0-11.258 8.578-20.469 19.065-20.469 10.485 0 19.064 9.215 19.064 20.469v95.773c0-10.676 7.713-19.512 17.451-20.397a220.005 220.005 0 0 0 6.804-54.289c0-121.503-98.497-220-220-220S10 108.497 10 230s98.498 220 220.001 220c35.755 0 70.971-8.714 102.601-25.39a86.19 86.19 0 0 1-3.581-24.657v-49.152c0-11.258 9.213-20.469 20.47-20.469v-91.814c0-11.26 8.578-20.471 19.064-20.471 10.484.001 19.062 9.22 19.062 20.472z" fill="#4bc1d7"/><path d="M349.49 238.519v91.814c-11.257 0-20.47 9.211-20.47 20.469v49.152a86.19 86.19 0 0 0 3.581 24.657c6.546 21.962 21.611 40.296 41.404 51.155v26.236h97.626V465.63C490.19 449.733 502 426.155 502 399.953v-68.945l.002-4.47c.004-11.25-8.579-20.471-19.065-20.471-10.485 0-19.06 9.212-19.063 20.471v-21.852c0-11.255-8.579-20.471-19.065-20.471-.543 0-1.081.024-1.612.073-9.738.886-17.451 9.722-17.451 20.397v-95.773c0-11.254-8.579-20.469-19.064-20.469-10.486 0-19.065 9.211-19.065 20.469v29.605c0-11.252-8.578-20.471-19.063-20.471-10.486.002-19.064 9.213-19.064 20.473z" fill="#f1dbc8"/><path d="M503.722 305.27c-5.525-5.934-12.907-9.201-20.784-9.201-3.441 0-6.742.634-9.809 1.79-2.172-9.906-8.961-17.98-17.859-21.593 3.124-15.216 4.731-30.729 4.731-46.266 0-61.436-23.924-119.193-67.365-162.635S291.437 0 230.001 0C168.566 0 110.808 23.924 67.366 67.365 23.924 110.807 0 168.564 0 230s23.924 119.193 67.366 162.635C110.808 436.076 168.566 460 230.001 460c33.449 0 66.771-7.43 97.081-21.523a96.65 96.65 0 0 0 36.924 42.986v20.539c0 5.522 4.478 10 10 10h97.625c5.523 0 10-4.478 10-10v-31.927C500.984 451.817 512 426.522 512 399.953v-68.941l.002-4.47c.003-7.98-2.938-15.535-8.28-21.272zM230.001 440C114.206 440 20 345.794 20 230S114.206 20 230.001 20c115.794 0 210 94.206 210 210 0 14.079-1.446 28.137-4.255 41.929v-63.016c0-16.801-13.038-30.469-29.064-30.469s-29.065 13.668-29.065 30.469v.66a27.706 27.706 0 0 0-9.063-1.525c-16.025 0-29.064 13.669-29.064 30.471v83.508c-11.902 4.149-20.47 15.477-20.47 28.775v49.151c0 6.557.669 13.017 1.956 19.298C292.685 432.836 261.402 440 230.001 440zM492 399.953c0 22.282-9.795 43.453-26.874 58.082-.093.079-.174.167-.263.249-.129.119-.259.236-.381.361-.121.124-.233.253-.347.381-.101.114-.202.228-.298.346-.113.142-.219.287-.324.434-.084.117-.169.234-.248.355-.098.148-.187.3-.275.452-.076.131-.152.262-.223.396a10.51 10.51 0 0 0-.213.441c-.069.151-.138.302-.2.457-.056.138-.104.278-.153.418-.059.17-.117.339-.167.513-.04.135-.072.273-.105.409a9.068 9.068 0 0 0-.12.538c-.027.146-.047.293-.067.439-.025.173-.05.346-.065.521-.016.17-.02.34-.026.511-.005.125-.019.247-.019.373V492h-77.625v-16.236c0-.026-.004-.053-.004-.079a10.231 10.231 0 0 0-.045-.894c-.015-.15-.042-.298-.064-.446-.024-.168-.044-.338-.077-.504-.037-.194-.088-.384-.138-.574-.03-.119-.057-.24-.093-.359a10.39 10.39 0 0 0-.199-.579c-.041-.112-.078-.225-.123-.337-.072-.176-.154-.347-.235-.518-.06-.125-.115-.25-.18-.372-.076-.146-.161-.284-.245-.425-.084-.143-.166-.285-.257-.424-.075-.114-.157-.223-.237-.333a10.546 10.546 0 0 0-.344-.459c-.075-.093-.157-.18-.236-.27-.133-.153-.266-.307-.41-.452-.09-.091-.186-.175-.28-.263-.14-.131-.277-.263-.426-.387-.139-.116-.286-.222-.433-.331-.11-.083-.217-.17-.332-.248a9.628 9.628 0 0 0-.896-.549c-24.509-13.477-39.732-39.146-39.732-67.011v-49.151c0-5.772 4.696-10.469 10.47-10.469 5.522 0 10-4.478 10-10v-91.814c0-5.676 4.15-10.471 9.064-10.471 4.913 0 9.063 4.795 9.063 10.471v91.814c0 5.522 4.478 10 10 10 5.523 0 10-4.478 10-10V208.911c0-5.675 4.151-10.469 9.065-10.469 4.913 0 9.064 4.794 9.064 10.469v121.42c0 5.522 4.478 10 10 10s10-4.478 10-10v-25.646c0-5.676 4.15-10.471 9.064-10.471s9.065 4.795 9.065 10.471v21.849l-.002 7.86c-.001 5.523 4.475 10.001 9.997 10.003h.003c5.521 0 9.998-4.476 10-9.997l.002-7.86c.001-5.677 4.152-10.473 9.063-10.473 2.265 0 4.447 1.005 6.147 2.831 1.882 2.022 2.918 4.732 2.917 7.635l-.002 4.47v68.95H492z"/><path d="M230 65c44.074 0 85.509 17.163 116.673 48.328 3.906 3.903 10.236 3.905 14.143 0 3.905-3.905 3.905-10.237 0-14.143-17.266-17.266-37.459-30.759-60.019-40.104C278.238 49.738 254.419 45 230 45 127.99 45 45 127.99 45 230c0 5.522 4.478 10 10 10s10-4.478 10-10c0-90.981 74.019-165 165-165z"/><path d="M230 110c21.036 0 41.784 5.559 60.001 16.077 4.784 2.762 10.899 1.122 13.66-3.66 2.762-4.783 1.123-10.898-3.66-13.66A140.184 140.184 0 0 0 230 90c-52.335 0-99.891 28.82-124.108 75.215-2.556 4.897-.658 10.938 4.237 13.493a10 10 0 0 0 13.493-4.237C144.38 134.703 185.142 110 230 110zm0 90c-16.542 0-29.999 13.458-29.999 30s13.457 30 29.999 30 30-13.458 30-30-13.458-30-30-30zm0 40c-5.514 0-9.999-4.486-9.999-10s4.485-10 9.999-10 10 4.486 10 10-4.486 10-10 10z"/><path d="M230 140c-49.626 0-90 40.374-90 90s40.374 90 90 90c49.627 0 90.001-40.374 90.001-90S279.627 140 230 140zm0 160c-38.598 0-70-31.402-70-70s31.402-70 70-70c38.599 0 70.001 31.402 70.001 70S268.599 300 230 300zM107.047 186.378c-5.345-1.406-10.81 1.794-12.209 7.137l-.058.216c-1.449 5.329 1.696 10.824 7.026 12.272.878.239 1.761.354 2.629.354 4.401 0 8.434-2.929 9.644-7.38l.104-.39c1.401-5.343-1.794-10.809-7.136-12.209zm165.659 203.001a165.103 165.103 0 0 1-59.455 4.769c-5.496-.555-10.403 3.439-10.964 8.933-.561 5.494 3.438 10.403 8.933 10.964a185.07 185.07 0 0 0 66.662-5.348c5.335-1.429 8.501-6.912 7.071-12.247-1.428-5.335-6.915-8.502-12.247-7.071zm-85.183.06l-.267-.07c-5.337-1.409-10.811 1.778-12.219 7.119-1.409 5.34 1.778 10.811 7.119 12.219l.267.07a9.984 9.984 0 0 0 2.557.334c4.43 0 8.48-2.968 9.662-7.453 1.41-5.34-1.778-10.81-7.119-12.219z"/></svg>