<svg xmlns="http://www.w3.org/2000/svg" xmlns:xlink="http://www.w3.org/1999/xlink" viewBox="0 0 1920 1220"><style>.st3{fill:#d9eefc}.st3,.st9{display:none}.st14{display:inline}.st31{fill:#6a15bc}.st41{display:inline;clip-path:url(#SVGID_39_)}.st45,.st54{fill:#fcc}.st54{display:none}.st56{fill:#63c}</style><linearGradient id="SVGID_1_" gradientUnits="userSpaceOnUse" x1="1343.75" y1="1102.97" x2="618.64" y2="183.51"><stop offset="0" stop-color="#9cf"/><stop offset=".98" stop-color="#f1f0fb"/></linearGradient><linearGradient id="SVGID_2_" gradientUnits="userSpaceOnUse" x1="439" y1="616.17" x2="521.04" y2="616.17"><stop offset=".01" stop-color="#63c"/><stop offset=".16" stop-color="#7347d2"/><stop offset=".49" stop-color="#957ae0"/><stop offset=".94" stop-color="#cacbf7"/><stop offset=".99" stop-color="#d0d4f9"/></linearGradient><path class="st3" d="M865 645.5H460.3c-1.1 0-2.1-.9-2.1-2.1v-5.6c0-1.3 1-2.3 2.3-2.3h402.2c1.3 0 2.3 1 2.3 2.3v7.7z"/><linearGradient id="SVGID_3_" gradientUnits="userSpaceOnUse" x1="846.53" y1="849.2" x2="1915" y2="410.88"><stop offset=".01" stop-color="#ecfffc"/><stop offset=".23" stop-color="#cacbf0"/><stop offset=".6" stop-color="#957add"/><stop offset=".87" stop-color="#7347d1"/><stop offset=".99" stop-color="#63c"/></linearGradient><linearGradient id="SVGID_4_" gradientUnits="userSpaceOnUse" x1="728.37" y1="675.85" x2="1951.11" y2="559.24"><stop offset="0" stop-color="#d9eefc"/><stop offset=".46" stop-color="#a091e4"/><stop offset=".83" stop-color="#764dd3"/><stop offset="1" stop-color="#63c"/></linearGradient><linearGradient id="SVGID_5_" gradientUnits="userSpaceOnUse" x1="837.54" y1="676.79" x2="1720.04" y2="601.57"><stop offset="0" stop-color="#c9dcf8" stop-opacity="0"/><stop offset=".03" stop-color="#c6d8f7" stop-opacity=".16"/><stop offset=".16" stop-color="#bac4f3"/><stop offset=".54" stop-color="#b67dca"/><stop offset=".84" stop-color="#b34aad"/><stop offset=".99" stop-color="#b236a2"/></linearGradient><linearGradient id="SVGID_6_" gradientUnits="userSpaceOnUse" x1="969.74" y1="840.84" x2="1623.7" y2="573.85"><stop offset="0" stop-color="#beccf5" stop-opacity="0"/><stop offset=".09" stop-color="#bfc6f1"/><stop offset=".42" stop-color="#c892cc"/><stop offset=".99" stop-color="#d8388d"/></linearGradient><path d="M1691.1 756.3c4.5-25.2-12.7-39.2-10.7-63.3 1.8-21.1 18.3-38.2 20-59.7 4-50.8-29.2-58.7-40.5-100.4-6.6-24.5 5.1-55.1-2.1-80-4.9-17.1-15.4-35.3-26.2-46.4-31.5-32.6-84.7-14.4-115.2-43.9-31.7-30.5-31.6-53.3-77.5-60.6-43.8-7-59.4 23.9-95.8 34.5-31.7 9.3-58.4-1.8-88.7 15.6-12.7 7.3-25.4 18.7-36 31.7-12.6 15.5-17.2 43.2-32.3 55.4-15.1 12.2-28.8 4.2-45 11.5-13.8 6.3-20.3 17.5-36.2 24.8-40.3 18.3-63.1 24.6-86.9 75.4-10.1 21.5-17.8 53-32.7 75.2-12.9 19.3-39.2 42.6-52 59.9-18.5 25.1-32.5 42-52.6 62.1-19 19-28.2 34.6-17.6 61.9 4.6 11.9 14.8 13.8 26.8 22.7 16.3 12.1 40.6 31.3 57.5 46.5 37.9 34.3 97.4 50.4 137.2 70.9 51.7 26.6 87.6 51.2 142.8 51.4 19.4.1 34.3-14.3 51.3-14.6 23.3-.3 37.6 13.7 58.4 17.4 21.1 3.8 41.5-10.3 62.2-8.9 20.1 1.4 30.4 14.3 51.9 8.4 14.2-3.9 24.3-16.9 39.6-20.9 16.5-4.4 33.9.9 51.4-3.8 43.1-11.8 82.6-46.1 102.7-93.6 8.9-20.9 7.2-43.1 13.8-63.9 7.7-23.3 28.2-41.7 32.4-65.3z" fill="url(#SVGID_6_)"/><circle class="st3" cx="406" cy="640" r="5"/><circle class="st3" cx="425" cy="640" r="5"/><circle class="st3" cx="444" cy="640" r="5"/><path class="st3" d="M401.8 699h130.3c1 0 1.8-.8 1.8-1.8v-6.3c0-1-.8-1.8-1.8-1.8H401.8c-1 0-1.8.8-1.8 1.8v6.3c0 1 .8 1.8 1.8 1.8zM401.8 719h130.3c1 0 1.8-.8 1.8-1.8v-6.3c0-1-.8-1.8-1.8-1.8H401.8c-1 0-1.8.8-1.8 1.8v6.3c0 1 .8 1.8 1.8 1.8zM401.8 739h130.3c1 0 1.8-.8 1.8-1.8v-6.3c0-1-.8-1.8-1.8-1.8H401.8c-1 0-1.8.8-1.8 1.8v6.3c0 1 .8 1.8 1.8 1.8z"/><g class="st9"><linearGradient id="SVGID_7_" gradientUnits="userSpaceOnUse" x1="733.71" y1="805.35" x2="869" y2="805.35"><stop offset="0" stop-color="#fff"/><stop offset=".88" stop-color="#fff" stop-opacity=".02"/><stop offset=".89" stop-color="#fff" stop-opacity="0"/></linearGradient><path d="M854.2 750.5H869v-1.2h-14.8c-3.5 0-6.3 2.8-6.3 6.3v5.5h-8.4c-1.4 0-2.6-.5-3.6-1.5l-7.6-7.6a6.2 6.2 0 0 0-4.4-1.8h-21.5v-8.3c0-3.5-2.8-6.3-6.3-6.3h-31.9c-3.5 0-6.3 2.8-6.3 6.3V758c0 2.8-2.3 5.1-5.1 5.1h-19.3v1.2H753c3.5 0 6.3-2.8 6.3-6.3v-16.2c0-2.8 2.3-5.1 5.1-5.1h31.9c2.8 0 5.1 2.3 5.1 5.1v8.3h-27c-.3-2.2-2.2-4-4.5-4-2.5 0-4.6 2-4.6 4.6 0 2.5 2 4.6 4.6 4.6 2.3 0 4.2-1.7 4.5-4h27v23.9h-46a2.8 2.8 0 0 0-2.7-2.1c-1.5 0-2.7 1.2-2.7 2.7 0 1.5 1.2 2.7 2.7 2.7 1.3 0 2.4-.9 2.7-2.1h46v2.6c0 3.5 2.8 6.3 6.3 6.3H833v27.3c0 3.5 2.8 6.3 6.3 6.3h8.8v34h-26.4v-35.8c0-3.5-2.8-6.3-6.3-6.3h-16.8c-2.8 0-5.1-2.3-5.1-5.1 0-3.5-2.8-6.3-6.3-6.3h-48.4v1.2h48.4c2.8 0 5.1 2.3 5.1 5.1 0 3.5 2.8 6.3 6.3 6.3h16.8c2.8 0 5.1 2.3 5.1 5.1v35.8h-8.7c-2.8 0-5.1-2.3-5.1-5.1v-11.3c0-3.5-2.8-6.3-6.3-6.3h-36.8c-.3-1.7-1.8-3-3.6-3-2 0-3.6 1.6-3.6 3.6s1.6 3.6 3.6 3.6c1.8 0 3.3-1.3 3.6-3h36.8c2.8 0 5.1 2.3 5.1 5.1v11.3c0 3.5 2.8 6.3 6.3 6.3h8.7v14.8c0 3.5 2.8 6.3 6.3 6.3h16.3c3.5 0 6.3-2.8 6.3-6.3v-14.8H869v-1.2h-19.9v-34H869v-1.2h-19.9v-32.4H869v-1.2h-19.9v-21.8H869v-1.2h-19.9v-5.5c0-2.8 2.3-5.1 5.1-5.1zm-6.3 118.4c0 2.8-2.3 5.1-5.1 5.1h-16.3c-2.8 0-5.1-2.3-5.1-5.1v-14.8h26.4v14.8zm-15-84.8h-25.3c-2.8 0-5.1-2.3-5.1-5.1v-2.6h25.3c2.8 0 5.1 2.3 5.1 5.1v2.6zm15 33.6h-8.8c-2.8 0-5.1-2.3-5.1-5.1v-27.3h13.8v32.4zm0-33.6h-13.8v-2.6c0-3.5-2.8-6.3-6.3-6.3h-25.3v-23.9H824c1.4 0 2.6.5 3.6 1.5l7.6 7.6a6.2 6.2 0 0 0 4.4 1.8h8.4v21.9z" fill="url(#SVGID_7_)"/><linearGradient id="SVGID_8_" gradientUnits="userSpaceOnUse" x1="569" y1="863.49" x2="712.61" y2="863.49"><stop offset="0" stop-color="#fff"/><stop offset=".88" stop-color="#fff" stop-opacity=".02"/><stop offset=".89" stop-color="#fff" stop-opacity="0"/></linearGradient><path d="M601 878.6c1.7 0 3.2-.7 4.4-1.8l25.6-25.6c1-1 2.2-1.5 3.6-1.5h78v-1.2h-78c-1.7 0-3.2.7-4.4 1.8l-25.6 25.6c-1 1-2.2 1.5-3.6 1.5h-32v1.2h32z" fill="url(#SVGID_8_)"/><linearGradient id="SVGID_9_" gradientUnits="userSpaceOnUse" x1="703.81" y1="723.34" x2="869" y2="723.34"><stop offset="0" stop-color="#fff"/><stop offset=".88" stop-color="#fff" stop-opacity=".02"/><stop offset=".89" stop-color="#fff" stop-opacity="0"/></linearGradient><path d="M851.4 735.8c-1.4 0-2.6-.5-3.6-1.5L825 711.5a6.2 6.2 0 0 0-4.4-1.8H755c-3.5 0-6.3 2.8-6.3 6.3v6.9c0 2.8-2.3 5.1-5.1 5.1h-39.9v1.2h39.9c3.5 0 6.3-2.8 6.3-6.3V716c0-2.8 2.3-5.1 5.1-5.1h65.6c1.4 0 2.6.5 3.6 1.5l22.8 22.8a6.2 6.2 0 0 0 4.4 1.8H869v-1.2h-17.6z" fill="url(#SVGID_9_)"/><linearGradient id="SVGID_10_" gradientUnits="userSpaceOnUse" x1="569" y1="776.73" x2="695.7" y2="776.73"><stop offset="0" stop-color="#fff"/><stop offset=".88" stop-color="#fff" stop-opacity=".02"/><stop offset=".89" stop-color="#fff" stop-opacity="0"/></linearGradient><path d="M569 714.1h66.9c2.8 0 5.1 2.3 5.1 5.1v16.4h-32.2c-1.7 0-3.2.7-4.4 1.8l-18.5 18.5c-1 1-2.2 1.5-3.6 1.5H569v1.2h13.2c1.7 0 3.2-.7 4.4-1.8l18.5-18.5c1-1 2.2-1.5 3.6-1.5h32.2v31.6h-44.6c-3.5 0-6.3 2.8-6.3 6.3v25.7h-21v1.2h21.1v2.2c0 2.8-2.3 5.1-5.1 5.1h-16v1.2h16c3.5 0 6.3-2.8 6.3-6.3v-2.2H641v19.8h-2.2c-1.7 0-3.2.7-4.4 1.8l-14.7 14.7c-1 1-2.2 1.5-3.6 1.5H569v1.2h47.1c1.7 0 3.2-.7 4.4-1.8l14.7-14.7c1-1 2.2-1.5 3.6-1.5h2.2v7.7c0 3.5 2.8 6.3 6.3 6.3h19.8c.3 2.2 2.2 4 4.5 4 2.5 0 4.6-2 4.6-4.6 0-2.5-2-4.6-4.6-4.6-2.3 0-4.2 1.7-4.5 4h-19.8c-2.8 0-5.1-2.3-5.1-5.1v-7.7h53.6v-1.2h-53.6v-19.8h20.4c3.5 0 6.3-2.8 6.3-6.3v-13.8c0-2.8 2.2-5 5-5.1a2.8 2.8 0 0 0 2.7 2.1c1.5 0 2.7-1.2 2.7-2.7 0-1.5-1.2-2.7-2.7-2.7-1.3 0-2.4.9-2.7 2.1-3.4 0-6.2 2.8-6.2 6.3v13.8c0 2.8-2.3 5.1-5.1 5.1h-20.4v-30.7h52.6v-1.2h-52.6v-31.6H659c2.8 0 5.1 2.3 5.1 5.1v10.9c0 3.5 2.8 6.3 6.3 6.3h12.1a2.8 2.8 0 0 0 2.7 2.1c1.5 0 2.7-1.2 2.7-2.7s-1.2-2.7-2.7-2.7c-1.3 0-2.4.9-2.7 2.1h-12.1c-2.8 0-5.1-2.3-5.1-5.1V742c0-3.5-2.8-6.3-6.3-6.3h-16.8v-16.4c0-3.5-2.8-6.3-6.3-6.3H569v1.1zm71.9 86.2h-49.7v-25.7c0-2.8 2.3-5.1 5.1-5.1h44.6v30.8z" fill="url(#SVGID_10_)"/></g><path class="st3" d="M531 850h-96a2 2 0 0 1-2-2v-82c0-1.1.9-2 2-2h96a2 2 0 0 1 2 2v82a2 2 0 0 1-2 2z"/><g class="st9"><g class="st14"><linearGradient id="SVGID_11_" gradientUnits="userSpaceOnUse" x1="990.87" y1="586.38" x2="1210.73" y2="931.3"><stop offset=".01" stop-color="#ceb7dd"/><stop offset=".21" stop-color="#d27eb9"/><stop offset=".41" stop-color="#d64c99"/><stop offset=".51" stop-color="#d8388d"/><stop offset=".67" stop-color="#ac36a5"/><stop offset=".89" stop-color="#7a34c1"/><stop offset=".99" stop-color="#63c"/></linearGradient><path d="M1046.8 941.4h97.9c0-.9.7-1.6 1.7-1.6h85.2c.9 0 1.7-.7 1.7-1.6V564.9c0-.9-.7-1.6-1.7-1.6H960.7c-.9 0-1.7.7-1.7 1.6v373.4c0 .9.7 1.6 1.7 1.6h84.5c.9-.1 1.6.6 1.6 1.5z" fill="url(#SVGID_11_)"/><linearGradient id="SVGID_12_" gradientUnits="userSpaceOnUse" x1="5949.07" y1="-2049.02" x2="5971.04" y2="-2030.6" gradientTransform="rotate(180 3527.92 -536.55)"><stop offset="0" stop-color="#d8388d"/><stop offset="1" stop-color="#c56"/></linearGradient><path fill="url(#SVGID_12_)" d="M1085.6 956.5h20.4v20.4h-20.4z"/><linearGradient id="SVGID_13_" gradientUnits="userSpaceOnUse" x1="1096.16" y1="586.53" x2="1096.16" y2="868.53"><stop offset=".01" stop-color="#d8388d"/><stop offset=".58" stop-color="#cd92c9"/><stop offset="1" stop-color="#c5d5f7"/></linearGradient><path d="M1097.2 853.5h15.7v34.1h-15.7v-34.1zm-17.8 34.1h15.7v-34.1h-15.7v34.1zm-67.9-34.1h15.7v34.1h-15.7v-34.1zm-17.8 34.1h15.7v-34.1h-15.7v34.1zm17.8-119.9h15.7v34.1h-15.7v-34.1zm-17.8 34.2h15.7v-34.1h-15.7v34.1zm17.8-120h15.7V716h-15.7v-34.1zm-17.8 34.2h15.7V682h-15.7v34.1zm103.5 51.6h15.7v34.1h-15.7v-34.1zm-17.8 34.2h15.7v-34.1h-15.7v34.1zm17.8-120h15.7V716h-15.7v-34.1zm-17.8 34.2h15.7V682h-15.7v34.1zm17.8-119.9h15.7v34.1h-15.7v-34.1zm-17.8 34.1h15.7v-34.1h-15.7v34.1zm-67.9-34.1h15.7v34.1h-15.7v-34.1zm-17.8 34.1h15.7v-34.1h-15.7v34.1zM1183 853.5h15.7v34.1H1183v-34.1zm-17.8 34.1h15.7v-34.1h-15.7v34.1zm17.8-119.9h15.7v34.1H1183v-34.1zm-17.8 34.2h15.7v-34.1h-15.7v34.1zm17.8-120h15.7V716H1183v-34.1zm-17.8 34.2h15.7V682h-15.7v34.1zm17.8-119.9h15.7v34.1H1183v-34.1zm-17.8 34.1h15.7v-34.1h-15.7v34.1z" fill="url(#SVGID_13_)"/><linearGradient id="SVGID_14_" gradientUnits="userSpaceOnUse" x1="1096.2" y1="631.63" x2="1094.66" y2="898.95"><stop offset=".01" stop-color="#d8388d"/><stop offset=".95" stop-color="#b136a2"/></linearGradient><path fill="url(#SVGID_14_)" d="M1066.7 625h58.9v26.2h-58.9z"/><linearGradient id="SVGID_15_" gradientUnits="userSpaceOnUse" x1="1096.69" y1="631.64" x2="1095.15" y2="898.96"><stop offset=".01" stop-color="#d8388d"/><stop offset=".95" stop-color="#b136a2"/></linearGradient><path fill="url(#SVGID_15_)" d="M1066.7 710.7h58.9v26.2h-58.9z"/><linearGradient id="SVGID_16_" gradientUnits="userSpaceOnUse" x1="1097.18" y1="631.64" x2="1095.65" y2="898.96"><stop offset=".01" stop-color="#d8388d"/><stop offset=".95" stop-color="#b136a2"/></linearGradient><path fill="url(#SVGID_16_)" d="M1066.7 796.5h58.9v26.2h-58.9z"/><linearGradient id="SVGID_17_" gradientUnits="userSpaceOnUse" x1="1097.67" y1="631.64" x2="1096.14" y2="898.96"><stop offset=".01" stop-color="#d8388d"/><stop offset=".95" stop-color="#b136a2"/></linearGradient><path fill="url(#SVGID_17_)" d="M1066.7 882.3h58.9v26.2h-58.9z"/></g></g><g class="st9"><defs><path id="SVGID_18_" d="M1740.4 692.2c5-23.8 26.6-40.8 30.9-65.7 4.1-23.9.1-45.3-8.8-62.7-10-19.5-28.5-30.5-32.9-54.9-.7-4.1-1-8.3-1-12.6.1-16.7 6.4-34.4 6.8-52.6.4-16.9-1.3-33.7-6.9-49-1.9-5.3-4.3-10.6-6.9-15.7-8.2-15.7-20-30.1-32.3-40-24.8-20-57.7-14.8-85.4-24.8-16.7-6.1-27-17.8-35.8-33.5-11.4-20.2-18.6-42.4-35.7-57.7-16-14.4-32-21.9-53-22.7-32.2-1.2-56.3 20.3-86.2 36.7-9.2 5-19 8.3-29.6 9.6-34.7 4.3-68.2-7.8-101.9 4.1-24.8 8.7-48.5 23.5-67.7 43.9-9.5 10.1-17.6 22.1-24.6 35.2-9.1 16.8-13.1 31.1-27.5 41.6-4.4 3.2-9 5.5-13.8 7.5-11.6 4.8-23.1 6.5-33.4 12.6-12.9 7.6-23 14.2-36 22.6-3 1.9-6 3.9-9.3 5.8-17.2 10.4-32.7 25-49.9 39.6-26.2 22.3-46.2 40.2-60.3 74.1-2 4.8-3.7 9.9-5.2 15.3-4.5 16.1-6.9 34.3-15.4 50.4-4.4 8.4-9.3 15.9-14.6 22.6-14.9 18.7-37 36.6-48.3 60-13.3 27.6-23.8 35.5-45.9 53.9-5.3 4.4-10.5 9.4-15.6 14.9-13.5 14.5-22 30.7-17.9 50.2 1.6 7.7 5 14.4 9.7 21 7.5 10.5 19 14.9 30.1 24.8.4.4.8.8 1.3 1.2 18.6 17.4 37.9 42.4 57.8 61.3 33.5 31.7 81.5 41.7 123.2 56.9 8.6 3.1 17.1 7 25.3 11.3 22.7 11.9 43.8 26 62.8 35.9 27.2 14.3 57.8 23.4 86 27.1 23.2 3 42.5-5.9 62.8-8.5 26.2-3.4 47.4-.4 73.4 6.1 26.2 6.5 47.7 4.3 73.8 4 4 0 7.9-.2 11.8 0 9.8.5 20.4-1.8 30.7-.4 6.2.9 12.3 2.5 18.8 3.6 7.5 1.3 14.4 2 21.7.9 10.5-1.4 18.8-5.2 27.2-9.1 12.7-5.9 23.8-12.1 39.2-15.2 6.3-1.3 12-1.7 17.6-2.2 8.7-.8 17-1.1 26.7-4.5 43.4-15.1 79.3-50 103-94.9 12.4-23.5 17.5-50.9 24.9-75.9 4.5-15.4 7.9-25.4 17.1-38.5 9.3-13.4 21.2-20.7 27.1-35.2 1.3-3.1 2.2-6.4 2.8-9.9 4.7-25.6-14.7-40.6-10.9-65.6-.1-1.2 0-2.1.2-2.9z"/></defs><clipPath id="SVGID_19_" class="st14"><use xlink:href="#SVGID_18_" overflow="visible"/></clipPath><g clip-path="url(#SVGID_19_)"><linearGradient id="SVGID_20_" gradientUnits="userSpaceOnUse" x1="1669.98" y1="668.31" x2="1440.98" y2="878.31"><stop offset=".01" stop-color="#b236a2"/><stop offset=".08" stop-color="#ac36a5"/><stop offset=".69" stop-color="#7a34c1"/><stop offset=".99" stop-color="#63c"/></linearGradient><path d="M1539.8 932.3v53.6c0 .9.7 1.6 1.7 1.6h94.6c.9 0 1.7-.7 1.7-1.6v-53.6c0-.9.7-1.6 1.7-1.6h85.2c.9 0 1.7-.7 1.7-1.6V555.8c0-.9-.7-1.6-1.7-1.6h-270.9c-.9 0-1.7.7-1.7 1.6v373.4c0 .9.7 1.6 1.7 1.6h84.5c.7-.1 1.5.6 1.5 1.5z" fill="url(#SVGID_20_)"/><linearGradient id="SVGID_21_" gradientUnits="userSpaceOnUse" x1="5456.1" y1="-2039.92" x2="5478.07" y2="-2021.49" gradientTransform="rotate(180 3527.92 -536.55)"><stop offset="0" stop-color="#d8388d"/><stop offset="1" stop-color="#c56"/></linearGradient><path fill="url(#SVGID_21_)" d="M1578.6 947.4h20.4v20.4h-20.4z"/><linearGradient id="SVGID_22_" gradientUnits="userSpaceOnUse" x1="5501.75" y1="-2004.54" x2="5445.73" y2="-1686.83" gradientTransform="rotate(180 3527.92 -536.55)"><stop offset="0" stop-color="#b236a2"/><stop offset=".99" stop-color="#d8388d"/></linearGradient><path d="M1590.2 844.4h15.7v34.1h-15.7v-34.1zm-17.8 34.1h15.7v-34.1h-15.7v34.1zm-68-34.1h15.7v34.1h-15.7v-34.1zm-17.8 34.1h15.7v-34.1h-15.7v34.1zm17.8-119.9h15.7v34.1h-15.7v-34.1zm-17.8 34.2h15.7v-34.1h-15.7v34.1zm17.8-120h15.7V707h-15.7v-34.2zm-17.8 34.2h15.7v-34.1h-15.7V707zm103.6 51.6h15.7v34.1h-15.7v-34.1zm-17.8 34.2h15.7v-34.1h-15.7v34.1zm17.8-120h15.7V707h-15.7v-34.2zm-17.8 34.2h15.7v-34.1h-15.7V707zm17.8-119.9h15.7v34.1h-15.7v-34.1zm-17.8 34.1h15.7v-34.1h-15.7v34.1zm-68-34.1h15.7v34.1h-15.7v-34.1zm-17.8 34.1h15.7v-34.1h-15.7v34.1zM1676 844.4h15.7v34.1H1676v-34.1zm-17.8 34.1h15.7v-34.1h-15.7v34.1zm17.8-119.9h15.7v34.1H1676v-34.1zm-17.8 34.2h15.7v-34.1h-15.7v34.1zm17.8-120h15.7V707H1676v-34.2zm-17.8 34.2h15.7v-34.1h-15.7V707zm17.8-119.9h15.7v34.1H1676v-34.1zm-17.8 34.1h15.7v-34.1h-15.7v34.1z" fill="url(#SVGID_22_)"/><linearGradient id="SVGID_23_" gradientUnits="userSpaceOnUse" x1="1589.13" y1="891" x2="1589.13" y2="597.99"><stop offset=".01" stop-color="#63c"/><stop offset=".2" stop-color="#7033c7"/><stop offset=".66" stop-color="#8134bd"/><stop offset="1" stop-color="#8734ba"/></linearGradient><path fill="url(#SVGID_23_)" d="M1559.7 615.9h58.9v26.2h-58.9z"/><linearGradient id="SVGID_24_" gradientUnits="userSpaceOnUse" x1="1589.13" y1="891" x2="1589.13" y2="597.99"><stop offset=".01" stop-color="#63c"/><stop offset=".2" stop-color="#7033c7"/><stop offset=".66" stop-color="#8134bd"/><stop offset="1" stop-color="#8734ba"/></linearGradient><path fill="url(#SVGID_24_)" d="M1559.7 701.6h58.9v26.2h-58.9z"/><linearGradient id="SVGID_25_" gradientUnits="userSpaceOnUse" x1="1589.13" y1="891" x2="1589.13" y2="597.99"><stop offset=".01" stop-color="#63c"/><stop offset=".31" stop-color="#7a34c1"/><stop offset=".92" stop-color="#ac36a5"/><stop offset=".99" stop-color="#b236a2"/></linearGradient><path fill="url(#SVGID_25_)" d="M1559.7 787.4h58.9v26.2h-58.9z"/><linearGradient id="SVGID_26_" gradientUnits="userSpaceOnUse" x1="1589.13" y1="891" x2="1589.13" y2="597.99"><stop offset=".01" stop-color="#63c"/><stop offset=".31" stop-color="#7a34c1"/><stop offset=".92" stop-color="#ac36a5"/><stop offset=".99" stop-color="#b236a2"/></linearGradient><path fill="url(#SVGID_26_)" d="M1559.7 873.2h58.9v26.2h-58.9z"/></g></g><g class="st9"><linearGradient id="SVGID_27_" gradientUnits="userSpaceOnUse" x1="1060.74" y1="863.87" x2="961.61" y2="881.35" gradientTransform="matrix(-1 0 0 1 2174.55 0)"><stop offset=".01" stop-color="#d8388d"/><stop offset=".35" stop-color="#ac36a5"/><stop offset=".78" stop-color="#7a34c1"/><stop offset=".99" stop-color="#63c"/></linearGradient><path d="M1158.1 950.3s-53.6 11.8-53.6-37.4c0 0 .4-15.6 14.7-28.9 14.3-13.3 6.6-28.9 6.6-28.9s-2.6-5.7 5.5-15.6c8.1-9.9 7-24.1 7-24.1s-.4-24.6 14.7-27.2c15.1-2.6 23.5 32.9 23.9 39.1.4 6.2 5.1 11.4 11 15.2 5.9 3.8 18 16.1 12.8 40.2 0 0-4.8 8.5 2.6 18 7.3 9.5 13.6 29.8-8.1 43.1 0 0-5.1 2.4-16.9.9-11.8-1.5-12.2 2.7-20.2 5.6z" fill="url(#SVGID_27_)"/><g class="st14"><path class="st31" d="M1142.7 897.1c-6 3.1-7.7 2.6-12.7 1.9 5.3.6 9.3-2.1 11-3.4a60.7 60.7 0 0 1-8.7-10.9c1.2 1.4 2.7 3 4.3 4.7 4.8 4.7 11.2 9.3 19.3 6.8.3-7.5.5-14.7.7-21.1-2.1-.8-3.8-2-5.1-3.6-2.7 1-5.3.3-7.6-1.1-1-.6-2-1.4-2.9-2.2.2.2.4.3.6.5 3.8 2.7 7.2 2 8.9 1.3-1.1-1.6-1.8-3.5-2.4-5.4-.5-1.8-.8-3.7-.9-5.6.1.4.1.8.2 1.2 1.7 9.1 8.1 11.6 9.3 12 .5-13.1.8-22.3.9-22.2 0 0 .2 20.3.3 22.3.1 3.2.3 8.4.5 13.5 5.8 2.3 10.4-1 13.7-4.3 1.1-1.1 2.1-2.2 2.9-3.1-2.1 3.2-4.1 5.6-5.9 7.3 1.1.9 3.9 2.7 7.5 2.3-3.4.5-4.5.8-8.6-1.3-4.7 3.9-8.1 3.5-9.5 3.1.2 5.8.4 10.6.4 10.6l.4 18c3.2-.5 14.3-3.3 19.3-17.5-1 4.7-2.5 10.8-7.8 15.9 1.9 1.1 5.7 2.4 10.4.1.3-.1.5-.3.8-.4-1.2.8-2.5 1.5-3.8 2-3 1.1-6.1 1.4-9.1-.3-2.4 2-5.5 3.7-9.5 5.1-.1 0-.1 0-.2.1l1.2 49.5c0 1.1-.8 2.1-1.9 2.1h-3.7c-1 0-1.9-.9-1.8-2.1v-.9l.2-6.4v-1.1s1-32.1 2-62.2c-2.2.1-6.8-.1-12.7-5.2z"/></g></g><g class="st9"><g class="st14"><linearGradient id="SVGID_28_" gradientUnits="userSpaceOnUse" x1="1198.7" y1="962.78" x2="1539.19" y2="470.8"><stop offset=".01" stop-color="#d8388d"/><stop offset=".35" stop-color="#ac36a5"/><stop offset=".78" stop-color="#7a34c1"/><stop offset=".99" stop-color="#63c"/></linearGradient><path d="M1433.1 468.4v-70.3c0-1.1-1-2.1-2.2-2.1h-124.2c-1.2 0-2.2.9-2.2 2.1v70.3c0 1.1-1 2.1-2.2 2.1h-112c-1.2 0-2.2.9-2.2 2.1V963c0 1.1 1 2.1 2.2 2.1h355.9c1.2 0 2.2-.9 2.2-2.1V472.5c0-1.1-1-2.1-2.2-2.1h-110.9c-1.2.1-2.2-.9-2.2-2z" fill="url(#SVGID_28_)"/><path fill="#d8388d" d="M1355.4 421.8h26.7v26.7h-26.7z"/><linearGradient id="SVGID_29_" gradientUnits="userSpaceOnUse" x1="1368.3" y1="945" x2="1368.3" y2="552.63"><stop offset="0" stop-color="#c9e3fb"/><stop offset=".46" stop-color="#d091c7"/><stop offset=".99" stop-color="#d8388d"/></linearGradient><path d="M1366.9 567.1h-20.6v-44.8h20.6v44.8zm23.4-44.8h-20.6v44.8h20.6v-44.8zm89.2 44.8H1459v-44.8h20.6v44.8zm23.4-44.8h-20.6v44.8h20.6v-44.8zm-23.4 157.5H1459V635h20.6v44.8zm23.4-44.9h-20.6v44.8h20.6v-44.8zm-23.4 157.5H1459v-44.8h20.6v44.8zm23.4-44.8h-20.6v44.8h20.6v-44.8zm-136-67.8h-20.6V635h20.6v44.8zm23.4-44.9h-20.6v44.8h20.6v-44.8zm-23.4 157.5h-20.6v-44.8h20.6v44.8zm23.4-44.8h-20.6v44.8h20.6v-44.8zm-23.4 157.5h-20.6v-44.8h20.6v44.8zm23.4-44.9h-20.6V905h20.6v-44.8zm89.2 44.9H1459v-44.8h20.6v44.8zm23.4-44.9h-20.6V905h20.6v-44.8zm-248.7-293.1h-20.6v-44.8h20.6v44.8zm23.4-44.8H1257v44.8h20.6v-44.8zm-23.4 157.5h-20.6V635h20.6v44.8zm23.4-44.9H1257v44.8h20.6v-44.8zm-23.4 157.5h-20.6v-44.8h20.6v44.8zm23.4-44.8H1257v44.8h20.6v-44.8zm-23.4 157.5h-20.6v-44.8h20.6v44.8zm23.4-44.9H1257V905h20.6v-44.8z" fill="url(#SVGID_29_)"/><linearGradient id="SVGID_30_" gradientUnits="userSpaceOnUse" x1="1351.19" y1="545.64" x2="1385.41" y2="604.9"><stop offset=".01" stop-color="#d8388d"/><stop offset=".95" stop-color="#b136a2"/></linearGradient><path fill="url(#SVGID_30_)" d="M1329.6 558.1h77.3v34.4h-77.3z"/><linearGradient id="SVGID_31_" gradientUnits="userSpaceOnUse" x1="1368.3" y1="563.03" x2="1368.3" y2="920.06"><stop offset=".01" stop-color="#d8388d"/><stop offset=".35" stop-color="#ac36a5"/><stop offset=".78" stop-color="#7a34c1"/><stop offset=".99" stop-color="#63c"/></linearGradient><path fill="url(#SVGID_31_)" d="M1329.6 670.7h77.3v34.4h-77.3z"/><linearGradient id="SVGID_32_" gradientUnits="userSpaceOnUse" x1="1368.3" y1="563.03" x2="1368.3" y2="920.06"><stop offset=".01" stop-color="#d8388d"/><stop offset=".35" stop-color="#ac36a5"/><stop offset=".78" stop-color="#7a34c1"/><stop offset=".99" stop-color="#63c"/></linearGradient><path fill="url(#SVGID_32_)" d="M1329.6 783.4h77.3v34.4h-77.3z"/><linearGradient id="SVGID_33_" gradientUnits="userSpaceOnUse" x1="1368.3" y1="563.03" x2="1368.3" y2="937.01"><stop offset=".01" stop-color="#d8388d"/><stop offset=".35" stop-color="#ac36a5"/><stop offset=".78" stop-color="#7a34c1"/><stop offset=".99" stop-color="#63c"/></linearGradient><path fill="url(#SVGID_33_)" d="M1329.6 896h77.3v34.4h-77.3z"/></g></g><g class="st9"><defs><path id="SVGID_34_" d="M1740.9 691.7c5-23.8 26.6-40.8 30.9-65.7 4.1-23.9.1-45.3-8.8-62.7-10-19.5-28.5-30.5-32.9-54.9-.7-4.1-1-8.3-1-12.6.1-16.7 6.4-34.4 6.8-52.6.4-16.9-1.3-33.7-6.9-49-1.9-5.3-4.3-10.6-6.9-15.7-8.2-15.7-20-30.1-32.3-40-24.8-20-57.7-14.8-85.4-24.8-16.7-6.1-27-17.8-35.8-33.5-11.4-20.2-18.6-42.4-35.7-57.7-16-14.4-32-21.9-53-22.7-32.2-1.2-56.3 20.3-86.2 36.7-9.2 5-19 8.3-29.6 9.6-34.7 4.3-68.2-7.8-101.9 4.1-24.8 8.7-48.5 23.5-67.7 43.9-9.5 10.1-17.6 22.1-24.6 35.2-9.1 16.8-13.1 31.1-27.5 41.6-4.4 3.2-9 5.5-13.8 7.5-11.6 4.8-23.1 6.5-33.4 12.6-12.9 7.6-23 14.2-36 22.6-3 1.9-6 3.9-9.3 5.8-17.2 10.4-32.7 25-49.9 39.6-26.2 22.3-46.2 40.2-60.3 74.1-2 4.8-3.7 9.9-5.2 15.3-4.5 16.1-6.9 34.3-15.4 50.4-4.4 8.4-9.3 15.9-14.6 22.6-14.9 18.7-37 36.6-48.3 60-13.3 27.6-23.8 35.5-45.9 53.9-5.3 4.4-10.5 9.4-15.6 14.9-13.5 14.5-22 30.7-17.9 50.2 1.6 7.7 5 14.4 9.7 21 7.5 10.5 19 14.9 30.1 24.8.4.4.8.8 1.3 1.2 18.6 17.4 37.9 42.4 57.8 61.3 33.5 31.7 81.5 41.7 123.2 56.9 8.6 3.1 17.1 7 25.3 11.3 22.7 11.9 43.8 26 62.8 35.9 27.2 14.3 57.8 23.4 86 27.1 23.2 3 42.5-5.9 62.8-8.5 26.2-3.4 47.4-.4 73.4 6.1 26.2 6.5 47.7 4.3 73.8 4 4 0 7.9-.2 11.8 0 9.8.5 20.4-1.8 30.7-.4 6.2.9 12.3 2.5 18.8 3.6 7.5 1.3 14.4 2 21.7.9 10.5-1.4 18.8-5.2 27.2-9.1 12.7-5.9 23.8-12.1 39.2-15.2 6.3-1.3 12-1.7 17.6-2.2 8.7-.8 17-1.1 26.7-4.5 43.4-15.1 79.3-50 103-94.9 12.4-23.5 17.5-50.9 24.9-75.9 4.5-15.4 7.9-25.4 17.1-38.5 9.3-13.4 21.2-20.7 27.1-35.2 1.3-3.1 2.2-6.4 2.8-9.9 4.7-25.6-14.7-40.6-10.9-65.6-.1-1.2 0-2.1.2-2.9z"/></defs><clipPath id="SVGID_35_" class="st14"><use xlink:href="#SVGID_34_" overflow="visible"/></clipPath><linearGradient id="SVGID_36_" gradientUnits="userSpaceOnUse" x1="1244.84" y1="1087.41" x2="1074.14" y2="870.95"><stop offset="0" stop-color="#63c"/><stop offset=".21" stop-color="#7e34bf"/><stop offset=".99" stop-color="#d8388d"/></linearGradient><path d="M812 913s204-5 377.9 34.4c106.5 24.1 240.1 79.6 298.1 83.6s-182 27-182 27l-211-12-182.7-79.1L812 913z" clip-path="url(#SVGID_35_)" fill="url(#SVGID_36_)"/><linearGradient id="SVGID_37_" gradientUnits="userSpaceOnUse" x1="1353.8" y1="873.25" x2="1414.48" y2="1039.99"><stop offset=".01" stop-color="#d8388d"/><stop offset=".95" stop-color="#8234bd"/></linearGradient><path d="M1748 899s-318 21-467 54-271 33-271 33 50 48 112 67 133-12 133-12l144 12 99.2 5.5 109.5-55L1748 899z" clip-path="url(#SVGID_35_)" fill="url(#SVGID_37_)"/></g><g class="st9"><defs><path id="SVGID_38_" d="M1740.9 691.7c5-23.8 26.6-40.8 30.9-65.7 4.1-23.9.1-45.3-8.8-62.7-10-19.5-28.5-30.5-32.9-54.9-.7-4.1-1-8.3-1-12.6.1-16.7 6.4-34.4 6.8-52.6.4-16.9-1.3-33.7-6.9-49-1.9-5.3-4.3-10.6-6.9-15.7-8.2-15.7-20-30.1-32.3-40-24.8-20-57.7-14.8-85.4-24.8-16.7-6.1-27-17.8-35.8-33.5-11.4-20.2-18.6-42.4-35.7-57.7-16-14.4-32-21.9-53-22.7-32.2-1.2-56.3 20.3-86.2 36.7-9.2 5-19 8.3-29.6 9.6-34.7 4.3-68.2-7.8-101.9 4.1-24.8 8.7-48.5 23.5-67.7 43.9-9.5 10.1-17.6 22.1-24.6 35.2-9.1 16.8-13.1 31.1-27.5 41.6-4.4 3.2-9 5.5-13.8 7.5-11.6 4.8-23.1 6.5-33.4 12.6-12.9 7.6-23 14.2-36 22.6-3 1.9-6 3.9-9.3 5.8-17.2 10.4-32.7 25-49.9 39.6-26.2 22.3-46.2 40.2-60.3 74.1-2 4.8-3.7 9.9-5.2 15.3-4.5 16.1-6.9 34.3-15.4 50.4-4.4 8.4-9.3 15.9-14.6 22.6-14.9 18.7-37 36.6-48.3 60-13.3 27.6-23.8 35.5-45.9 53.9-5.3 4.4-10.5 9.4-15.6 14.9-13.5 14.5-22 30.7-17.9 50.2 1.6 7.7 5 14.4 9.7 21 7.5 10.5 19 14.9 30.1 24.8.4.4.8.8 1.3 1.2 18.6 17.4 37.9 42.4 57.8 61.3 33.5 31.7 81.5 41.7 123.2 56.9 8.6 3.1 17.1 7 25.3 11.3 22.7 11.9 43.8 26 62.8 35.9 27.2 14.3 57.8 23.4 86 27.1 23.2 3 42.5-5.9 62.8-8.5 26.2-3.4 47.4-.4 73.4 6.1 26.2 6.5 47.7 4.3 73.8 4 4 0 7.9-.2 11.8 0 9.8.5 20.4-1.8 30.7-.4 6.2.9 12.3 2.5 18.8 3.6 7.5 1.3 14.4 2 21.7.9 10.5-1.4 18.8-5.2 27.2-9.1 12.7-5.9 23.8-12.1 39.2-15.2 6.3-1.3 12-1.7 17.6-2.2 8.7-.8 17-1.1 26.7-4.5 43.4-15.1 79.3-50 103-94.9 12.4-23.5 17.5-50.9 24.9-75.9 4.5-15.4 7.9-25.4 17.1-38.5 9.3-13.4 21.2-20.7 27.1-35.2 1.3-3.1 2.2-6.4 2.8-9.9 4.7-25.6-14.7-40.6-10.9-65.6-.1-1.2 0-2.1.2-2.9z"/></defs><clipPath id="SVGID_39_" class="st14"><use xlink:href="#SVGID_38_" overflow="visible"/></clipPath><g class="st41"><linearGradient id="SVGID_40_" gradientUnits="userSpaceOnUse" x1="877.61" y1="765.43" x2="960.05" y2="937.38"><stop offset="0" stop-color="#c9a4d3"/><stop offset=".16" stop-color="#ce7ebb"/><stop offset=".39" stop-color="#d54c9a"/><stop offset=".51" stop-color="#d8388d"/><stop offset=".68" stop-color="#ac36a5"/><stop offset=".89" stop-color="#7a34c1"/><stop offset="1" stop-color="#63c"/></linearGradient><path d="M924.5 921.3s61.3 13.4 61.3-42.5c0 0-.4-17.7-16.8-32.8-16.4-15.1-7.6-32.8-7.6-32.8s2.9-6.5-6.3-17.7c-9.2-11.3-8-27.4-8-27.4s.5-28-16.8-30.9c-17.2-3-26.9 37.4-27.3 44.4-.4 7-5.9 12.9-12.6 17.2-6.7 4.3-20.6 18.3-14.7 45.7 0 0 5.5 9.7-2.9 20.4-8.4 10.8-15.5 33.9 9.2 48.9 0 0 5.9 2.7 19.3 1.1 13.5-1.6 13.9 3.2 23.2 6.4z" fill="url(#SVGID_40_)"/><path class="st31" d="M908.7 865.3c-6.9 3.1-8.8 2.6-14.5 1.9 6.1.6 10.7-2 12.6-3.4-3.1-2.5-6.4-6-10-10.7 1.4 1.4 3.1 3 4.9 4.6 5.4 4.7 12.8 9.2 22.1 6.7.3-7.4.6-14.5.8-20.9-2.4-.8-4.3-2-5.8-3.5-3.1.9-6.1.3-8.7-1-1.2-.6-2.3-1.4-3.4-2.2.2.2.5.3.7.5 4.3 2.6 8.2 2 10.1 1.3-1.2-1.6-2.1-3.4-2.7-5.4-.5-1.8-.9-3.6-1-5.5.1.4.1.8.2 1.2 2 9 9.3 11.5 10.7 11.8.5-13 .9-22 1-21.9 0 0 .3 20 .4 22 .2 3.2.4 8.3.6 13.3 6.6 2.2 11.9-1 15.7-4.3 1.3-1.1 2.4-2.2 3.3-3.1-2.4 3.2-4.7 5.5-6.7 7.2 1.3.9 4.4 2.7 8.5 2.3-3.9.5-5.2.8-9.8-1.3-5.3 3.9-9.3 3.5-10.8 3.1.2 5.8.4 10.5.4 10.5l.5 17.8c3.6-.5 16.3-3.2 22.1-17.3-1.2 4.7-2.9 10.7-8.9 15.7 2.2 1.1 6.5 2.4 11.9.1.3-.1.6-.3.9-.4-1.4.8-2.8 1.5-4.3 2-3.4 1.1-7 1.3-10.4-.3-2.8 1.9-6.3 3.7-10.9 5-.1 0-.1 0-.2.1l1.4 48.9c0 1.1-.9 2-2.1 2h-4.2c-1.2 0-2.1-.9-2.1-2v-.9l.3-6.3v-1.1s1.2-31.7 2.3-61.5c-2.8.3-8.1 0-14.9-5z"/></g><g class="st41"><linearGradient id="SVGID_41_" gradientUnits="userSpaceOnUse" x1="1181.04" y1="858.01" x2="1240.38" y2="960.78"><stop offset=".04" stop-color="#d35fa6"/><stop offset=".23" stop-color="#d54c9a"/><stop offset=".45" stop-color="#d8388d"/><stop offset=".64" stop-color="#ac36a5"/><stop offset=".88" stop-color="#7a34c1"/><stop offset=".99" stop-color="#63c"/></linearGradient><path d="M1218.5 960.8s53.6 9.2 53.6-29c0 0-.4-12.1-14.7-22.4-14.3-10.3-6.6-22.4-6.6-22.4s2.6-4.4-5.5-12.1c-8.1-7.7-7-18.7-7-18.7s.4-19.1-14.7-21.1-23.5 25.5-23.9 30.3c-.4 4.8-5.1 8.8-11 11.7-5.9 2.9-18 12.5-12.8 31.2 0 0 4.8 6.6-2.6 13.9s-13.6 23.1 8.1 33.4c0 0 5.1 1.8 16.9.7 11.7-1 12.1 2.3 20.2 4.5z" fill="url(#SVGID_41_)"/><path class="st31" d="M1233.9 918.2c6 2.9 7.7 2.4 12.7 1.8-5.3.5-9.3-1.9-11-3.2 2.7-2.4 5.6-5.6 8.7-10-1.2 1.3-2.7 2.8-4.3 4.3-4.8 4.4-11.2 8.6-19.3 6.2-.3-6.9-.5-13.6-.7-19.5 2.1-.7 3.8-1.9 5.1-3.3 2.7.9 5.3.3 7.6-1 1-.6 2-1.3 2.9-2-.2.2-.4.3-.6.4-3.8 2.5-7.2 1.9-8.9 1.2 1.1-1.5 1.8-3.2 2.4-5 .5-1.7.8-3.4.9-5.1-.1.4-.1.8-.2 1.1-1.7 8.4-8.1 10.7-9.3 11.1-.5-12.1-.8-20.5-.9-20.5 0 0-.2 18.7-.3 20.5-.1 3-.3 7.8-.5 12.4-5.8 2.1-10.4-.9-13.7-4-1.1-1-2.1-2-2.9-2.9 2.1 3 4.1 5.2 5.9 6.8-1.1.8-3.9 2.5-7.5 2.1 3.4.4 4.5.7 8.6-1.2 4.7 3.6 8.1 3.3 9.5 2.9-.2 5.4-.4 9.8-.4 9.8l-.4 16.6c-3.2-.5-14.3-3-19.3-16.2 1 4.4 2.5 10 7.8 14.6-1.9 1-5.7 2.3-10.4.1-.3-.1-.5-.3-.8-.4 1.2.7 2.5 1.4 3.8 1.8 3 1.1 6.1 1.3 9.1-.3 2.4 1.8 5.5 3.4 9.5 4.7.1 0 .1 0 .2.1l-1.2 45.6c0 1 .8 1.9 1.9 1.9h3.7c1 0 1.9-.9 1.8-1.9v-.8l-.2-5.9v-1.1s-1-29.6-2-57.4c2.1.5 6.7.3 12.7-4.3z"/></g></g><g class="st9"><path d="M561.6 879.9s2.7 8 4.2 12.9c0 0-13.3-.3-18-6.5l5-11.9 8.8 5.5z" fill="#f7d3a9"/><g class="st14"><path class="st45" d="M570.7 805.1l.6-4.2v-.6l-.4-3.1-2.5.3-2.1-2.6c-.9-1.1-2.6-1-3.4.2-1 1.5-2.1 3.4-2.6 5-.2.6-.1 1.3.3 1.8l3.1 4.6c.5.7 1.2 1 2 .9l3.1-.4c1-.3 1.7-1 1.9-1.9z"/><linearGradient id="SVGID_42_" gradientUnits="userSpaceOnUse" x1="579.75" y1="818.4" x2="520.75" y2="952.4"><stop offset=".01" stop-color="#9cf"/><stop offset=".17" stop-color="#92b8f8"/><stop offset=".51" stop-color="#8185e7"/><stop offset=".98" stop-color="#6634cc"/><stop offset=".99" stop-color="#63c"/></linearGradient><path d="M537 901.4s24.2-32.2 24.9-43.3c.6-11.2.3-52.3.3-52.3l8.6.7s9.1 58 7.2 65c-1.8 7-14.6 42.9-25 47.2-10.4 4.3-19-5.5-16-17.3z" fill="url(#SVGID_42_)"/><path class="st45" d="M572.4 852.9s6.2 20.6 2.3 25.8c-3.9 5.2-18.4.5-24-7.8-5.6-8.3-6.7-27 2.8-28.6 9.5-1.5 16.7 2.3 18.9 10.6z"/><path class="st45" d="M567.3 880.2s1.7 7.9 2.6 12.7c0 0-12.5-1.7-16.3-8l6-10.7 7.7 6zM612 815.5l.7-4.2c0-.2.1-.4.2-.5l1.3-2.8 2.3 1 2.8-1.8c1.2-.8 2.8-.2 3.2 1.2.5 1.7 1 3.9.9 5.5 0 .6-.3 1.2-.8 1.6l-4.4 3.4c-.6.5-1.5.6-2.2.2l-2.8-1.4c-.9-.4-1.4-1.3-1.2-2.2z"/><linearGradient id="SVGID_43_" gradientUnits="userSpaceOnUse" x1="607.76" y1="830.48" x2="519.76" y2="1103.81"><stop offset=".01" stop-color="#9cf"/><stop offset=".17" stop-color="#92b8f8"/><stop offset=".51" stop-color="#8185e7"/><stop offset=".98" stop-color="#6634cc"/><stop offset=".99" stop-color="#63c"/></linearGradient><path d="M618.7 818.9l-8.1-3.1s-11.2 39.6-14.9 50.2c-2.5 6.9-17.3 19.8-27.1 27.8-.4-.3-.9-.6-1.3-.9v.1c.1-.6-16-5.8-20.1-6.6-4.1-.8-14.4-1-18.6 9.4v2.1c0 12.7 3.5 52.6 4.9 68.7.1 63.3-41.1 123.4-41.1 123.4l-3.6 7.3s18.5 9.5 18.7 9.1c.2-.3-7.7-12.5-7.7-12.5 33.3-31.7 49.2-69.4 55-95 6.5 54.1-.1 104-.1 104l-1 8.8s20.7 2.2 20.8 1.8c.1-.4-11.7-8.5-11.7-8.5 22.7-60.2 16.6-119.7 14.7-133.9h.3v-.1c-4-19 4.7-45.5 6-52 .6-2.8.1-7-.7-10.8 10.2-11.1 19.1-21.8 21.7-26.2 3.9-6.2 13.9-63.1 13.9-63.1z" fill="url(#SVGID_43_)"/><linearGradient id="SVGID_44_" gradientUnits="userSpaceOnUse" x1="552.38" y1="847.88" x2="532.38" y2="975.88"><stop offset=".01" stop-color="#d8388d"/><stop offset=".35" stop-color="#ac36a5"/><stop offset=".78" stop-color="#7a34c1"/><stop offset=".99" stop-color="#63c"/></linearGradient><path d="M549.5 842.2s16.5-7 24.4 7.4c4.1 9.1-9.1.4-11.6 3.3s3.3 8.7 1.7 10.7c-1.7 2.1-4.5-3.7-6.2-.4-1.7 3.3 2.5 3.7 5.4 7.4 2.9 3.7-3.3 11 .9 14.3 4.1 3.3 13 15.2 6 33s4.8 13.6-3 38-51 35.3-60.9 6.4c-9.9-28.9 19.9-33.6 17.9-46.4-2.1-12.8-6.3-18.5 3.6-31.3s11.6-19.9 11.4-27.7c-.3-8.6 6.7-14.7 10.4-14.7z" fill="url(#SVGID_44_)"/></g></g><g class="st9"><linearGradient id="SVGID_45_" gradientUnits="userSpaceOnUse" x1="428.38" y1="1113.28" x2="413.71" y2="963.95"><stop offset=".01" stop-color="#63c"/><stop offset=".16" stop-color="#7347d2"/><stop offset=".49" stop-color="#957ae0"/><stop offset=".94" stop-color="#cacbf7"/><stop offset=".99" stop-color="#d0d4f9"/></linearGradient><path d="M381.6 971.7s51.2 82.9 44.8 140.6l34.8.7-15.2-9h6s-16.9-87.3-29-119c-12.7-33.2-13.7-23.4-13.7-23.4l-27.7 10.1z" fill="url(#SVGID_45_)"/><linearGradient id="SVGID_46_" gradientUnits="userSpaceOnUse" x1="378.91" y1="1118.14" x2="364.24" y2="968.81"><stop offset=".01" stop-color="#63c"/><stop offset=".16" stop-color="#7347d2"/><stop offset=".49" stop-color="#957ae0"/><stop offset=".94" stop-color="#cacbf7"/><stop offset=".99" stop-color="#d0d4f9"/></linearGradient><path d="M363.1 966.6s2.8 57.6-1.4 79.6c-4.3 22-17.1 65.4-17.1 65.4l32.7.7-8.6-6.1-5.5-3.2s26.3-62.6 28.4-92.4c2.1-29.9 5.7-46.9 5.7-46.9l-34.2 2.9z" fill="url(#SVGID_46_)"/><g class="st14"><path class="st45" d="M430 818.1l5.4-3.8 2.4-8.8-2.7-.5-1.6 3.2 1.6-15.2-2.7.5-2.6 14.7-3.2 6.9 2.9 1.9M487.7 855.9l2.1-6.1 9.3-6 1.2 2.9-3.5 2.5 15.4-.3-.7 3.1-14.7 2.3-3.8 4.2z"/><linearGradient id="SVGID_47_" gradientUnits="userSpaceOnUse" x1="355.59" y1="900.84" x2="433" y2="900.84"><stop offset="0" stop-color="#9cf"/><stop offset="1" stop-color="#fff"/></linearGradient><path d="M425.3 813.7s-59.7 64.7-66.8 79.4c0 0-2.9 5.3-2.9 20.6s.4 74.3.4 74.3l66.8-12.8s-20-69-20.6-70.8-7.7-11.1-17.2-13.5l48-72-7.7-5.2z" fill="url(#SVGID_47_)"/><path class="st45" d="M387.9 882.6s2.6 7.7 4 12.3c0 0-12.6-.3-17.1-6.1l4.7-11.3 8.4 5.1z"/><path class="st45" d="M397.5 858.7s3.7 21.8 0 26.7c-3.7 4.9-16.6-3.5-21.9-11.4-5.3-7.9-6.4-25.7 2.7-27.2 9-1.5 17.1 4 19.2 11.9z"/><linearGradient id="SVGID_48_" gradientUnits="userSpaceOnUse" x1="371.56" y1="887.71" x2="494.41" y2="887.71"><stop offset="0" stop-color="#9cf"/><stop offset="1" stop-color="#fff"/></linearGradient><path d="M382.8 893.7s57.5-.3 64.2-3.6c6.7-3.3 40.7-37.1 40.7-37.1l6.8 7s-32.2 41.4-36.5 45.3c-4.2 3.8-71.9 21.9-81.2 16.1-9.4-5.9-5.3-20 6-27.7z" fill="url(#SVGID_48_)"/></g><linearGradient id="SVGID_49_" gradientUnits="userSpaceOnUse" x1="388.7" y1="838.62" x2="372.03" y2="885.95"><stop offset=".01" stop-color="#d8388d"/><stop offset=".35" stop-color="#ac36a5"/><stop offset=".78" stop-color="#7a34c1"/><stop offset=".99" stop-color="#63c"/></linearGradient><path d="M391 841c-1.4 1.4-20.4 3.2-22.2 10.7-1.8 7.5.7 8.9.7 8.9s-3.9 4.6.7 11 15.1 11.7 17.7 11c2.6-.7 1.2-10.6 1.2-10.6s-6-.7-6.4-4.6c-.4-3.9 2.8-4.3 4.3-2.8 1.4 1.4 1.8 4.6 2.8 3.9 1.1-.7-.4-8.2-.4-8.2s3.9-3.2 4.6-6.4c0 0 2.5-8.5-2.8-12.8l-.2-.1z" fill="url(#SVGID_49_)"/></g><path class="st54" d="M499.9 600.9c12.7 11.5 23-21.6 23-21.6s-2.5-18.5-18.9-11.2c-16.4 7.3-6.8 30.3-4.1 32.8z"/><path class="st54" d="M498 593s-6 7-10 11c0 0 4.6 7.8 12 7.3l5.5-10.9-7.5-7.4z"/><linearGradient id="SVGID_50_" gradientUnits="userSpaceOnUse" x1="492.64" y1="578.55" x2="527.17" y2="578.55"><stop offset=".01" stop-color="#d8388d"/><stop offset=".35" stop-color="#ac36a5"/><stop offset=".78" stop-color="#7a34c1"/><stop offset=".99" stop-color="#63c"/></linearGradient><path class="st54" d="M474.4 627.3l2.8 2.2-1 2.5-8.2-4h-6c1.4-1.4 5-6 8-6l1.4.5c2.5.8 4.8 1.9 7 3.3l3.4 2.2-3.8 9-2-2-1.6-7.7zM535.4 627.3l2.8 2.2-1 2.5-8.2-4h-6c1.4-1.4 5-6 8-6l1.4.5c2.5.8 4.8 1.9 7 3.3l3.4 2.2-3.8 9-2-2-1.6-7.7z"/><g class="st9"><g class="st14"><path class="st56" d="M807 1113.7c-1.2 0-2.3-.7-2.6-1.8l-85.1-344c-.3-1.3.6-2.5 2.1-2.8 1.4-.3 2.9.5 3.2 1.8l85.1 344c.3 1.3-.6 2.5-2.1 2.8h-.6zM742.7 1113.7c-1.2 0-2.3-.7-2.6-1.8l-85.5-344c-.3-1.3.6-2.5 2.1-2.8 1.4-.3 2.9.5 3.2 1.8l85.5 344c.3 1.3-.6 2.5-2.1 2.8h-.6z"/><path class="st56" d="M725.4 788h-62.7c-1.5 0-2.7-1-2.7-2.3 0-1.3 1.2-2.3 2.7-2.3h62.7c1.5 0 2.7 1 2.7 2.3 0 1.3-1.2 2.3-2.7 2.3zM732.3 815.6h-62.7c-1.5 0-2.7-1-2.7-2.3 0-1.3 1.2-2.3 2.7-2.3h62.7c1.5 0 2.7 1 2.7 2.3-.1 1.2-1.3 2.3-2.7 2.3zM739.1 843.1h-62.7c-1.5 0-2.7-1-2.7-2.3s1.2-2.3 2.7-2.3h62.7c1.5 0 2.7 1 2.7 2.3s-1.2 2.3-2.7 2.3zM745.9 870.6h-62.7c-1.5 0-2.7-1-2.7-2.3 0-1.3 1.2-2.3 2.7-2.3h62.7c1.5 0 2.7 1 2.7 2.3 0 1.2-1.2 2.3-2.7 2.3zM752.7 898.1H690c-1.5 0-2.7-1-2.7-2.3 0-1.3 1.2-2.3 2.7-2.3h62.7c1.5 0 2.7 1 2.7 2.3 0 1.2-1.2 2.3-2.7 2.3zM759.6 925.6h-62.7c-1.5 0-2.7-1-2.7-2.3 0-1.3 1.2-2.3 2.7-2.3h62.7c1.5 0 2.7 1 2.7 2.3 0 1.3-1.2 2.3-2.7 2.3zM766.4 953.1h-62.7c-1.5 0-2.7-1-2.7-2.3 0-1.3 1.2-2.3 2.7-2.3h62.7c1.5 0 2.7 1 2.7 2.3 0 1.3-1.2 2.3-2.7 2.3zM773.2 980.6h-62.7c-1.5 0-2.7-1-2.7-2.3 0-1.3 1.2-2.3 2.7-2.3h62.7c1.5 0 2.7 1 2.7 2.3 0 1.3-1.2 2.3-2.7 2.3zM780.1 1008.1h-62.7c-1.5 0-2.7-1-2.7-2.3 0-1.3 1.2-2.3 2.7-2.3h62.7c1.5 0 2.7 1 2.7 2.3-.1 1.3-1.3 2.3-2.7 2.3zM786.9 1035.6h-62.7c-1.5 0-2.7-1-2.7-2.3 0-1.3 1.2-2.3 2.7-2.3h62.7c1.5 0 2.7 1 2.7 2.3 0 1.3-1.2 2.3-2.7 2.3zM793.7 1063.2H731c-1.5 0-2.7-1-2.7-2.3 0-1.3 1.2-2.3 2.7-2.3h62.7c1.5 0 2.7 1 2.7 2.3 0 1.2-1.2 2.3-2.7 2.3z"/></g></g><linearGradient id="SVGID_51_" gradientUnits="userSpaceOnUse" x1="424.55" y1="1011.35" x2="409.91" y2="862.31" gradientTransform="matrix(-1 0 0 1 1188 0)"><stop offset=".01" stop-color="#63c"/><stop offset=".02" stop-color="#6634cc"/><stop offset=".49" stop-color="#8185e7"/><stop offset=".83" stop-color="#92b8f8"/><stop offset=".99" stop-color="#9cf"/></linearGradient><linearGradient id="SVGID_52_" gradientUnits="userSpaceOnUse" x1="773.61" y1="892.94" x2="718.61" y2="1005.94"><stop offset=".01" stop-color="#9cf"/><stop offset=".17" stop-color="#92b8f8"/><stop offset=".51" stop-color="#8185e7"/><stop offset=".98" stop-color="#6634cc"/><stop offset=".99" stop-color="#63c"/></linearGradient><g class="st9"><g class="st14"><linearGradient id="SVGID_53_" gradientUnits="userSpaceOnUse" x1="787.12" y1="898" x2="787.12" y2="791.49"><stop offset=".01" stop-color="#63c"/><stop offset=".02" stop-color="#6634cc"/><stop offset=".49" stop-color="#8185e7"/><stop offset=".83" stop-color="#92b8f8"/><stop offset=".99" stop-color="#9cf"/></linearGradient><path d="M804.3 849.3c-.6-2.9-2.8-9.2-11.9-22.6-5.6-8.2-8.6-11.2-10.6-13.5-3.7-4-9.1-2.7-10.4-.1-2 4.1-2 11.1-.2 13.3 7.8 9.7 14.6 17.2 18.2 21.8-4.7 5.8-13.6 23.8-16.1 26.3-1.8 1.7-.7 4.6 2.4 4 3.7-.6 5.9-3 12.7-8.8 9.8-8.3 11.6-10.9 15.8-18.1.3-.7.3-1.5.1-2.3z" fill="url(#SVGID_53_)"/><path class="st45" d="M705.9 752.3c-1.2-.1-1.8 1.7-2.1 3.7-3.1-5.6-7.8-12.9-9.7-10.7-3 3.5-1 11.2 0 13.6 1.8 4.5 6.4 6.9 9.4 6.5 2-.3 4-1.6 3.4-3.5.1-.5.1-1 .2-1.7 0-1 .1-7.8-1.2-7.9zM772.7 788.8c1.9-18.7-8.1-19.3-13.5-19.3s-10.7 5.2-11.2 9.4c-.2 1.8-.4 3.4-.4 5-.7-.5-1.4-.7-2-.4-1.4.6-1.6 3.2-.6 5.8.7 1.8 1.9 3.1 3 3.6.2 1.6.5 3 .8 4 .9 3.2 3.4 7.8 7.2 8 0 .3-.1.5-.1.8 0 1.9-.1 4.1-.3 6.2-.3 3.3 3.6 6.3 6.9 6.3h.4c3.6-.3 6.5-3.8 6.4-7.4-.1-2.8-.3-5.8-.5-8.5 0-.4-.1-.8-.2-1.2 3.1-3 3.3-4.8 4.1-12.3z"/><linearGradient id="SVGID_54_" gradientUnits="userSpaceOnUse" x1="742.58" y1="903.07" x2="742.58" y2="792.64"><stop offset=".01" stop-color="#63c"/><stop offset=".02" stop-color="#6634cc"/><stop offset=".49" stop-color="#8185e7"/><stop offset=".83" stop-color="#92b8f8"/><stop offset=".99" stop-color="#9cf"/></linearGradient><path d="M773.9 808.2c-2.8-.9-6.2-1.1-9-1.1h-8.6c-1.9 0-6.1.5-9.5 1.6-12.2-9.8-22-16.6-24.6-19.5l-.3-.3c-.1-.4-.2-.7-.3-1-2.1-5.8-14.7-23.7-17.1-26.7-1.2-1.5-4.4-1.3-5.1 1.7-.8 3.7.7 4 3.6 13.1 3.6 11.5 6.3 17.6 9.3 22.5.4.6.9 1 1.4 1.2 1.9 2.5 11.2 17 18.4 26.4-2.2 25-8.3 75.1-8.3 75.1l55-3c-1.2-14.1-1.1-42.7 5.1-62.9 3.7-11.9 2.6-23.3-10-27.1z" fill="url(#SVGID_54_)"/><ellipse transform="rotate(-67.78 772.42 788.23)" cx="772.4" cy="788.3" rx="5.2" ry="2.7" fill="#ffaf84"/><linearGradient id="SVGID_55_" gradientUnits="userSpaceOnUse" x1="758.28" y1="770.63" x2="768.28" y2="805.3"><stop offset=".01" stop-color="#d8388d"/><stop offset=".35" stop-color="#ac36a5"/><stop offset=".78" stop-color="#7a34c1"/><stop offset=".99" stop-color="#63c"/></linearGradient><path d="M772 773.4c1.6-2.6-16.5-9-16.5-9-7.6 1.3-10.4 8.9-7.3 11.4.4.4 1 .7 1.8.9-1 1.7-1.3 3.8-1.2 6.8.1 5.5 2.5 14.9 12.6 17 10.1 2.1 12.5-7.9 13.1-14.9.4-5.6.2-10-2.5-12.2z" fill="url(#SVGID_55_)"/></g></g><g class="st9"><linearGradient id="SVGID_56_" gradientUnits="userSpaceOnUse" x1="1606.83" y1="924.69" x2="1717.36" y2="831.95" gradientTransform="matrix(-1 0 0 1 3319.08 0)"><stop offset=".01" stop-color="#63c"/><stop offset=".22" stop-color="#7a34c1"/><stop offset=".65" stop-color="#ac36a5"/><stop offset=".99" stop-color="#d8388d"/></linearGradient><path d="M1650.8 948.7s-83.5 14.3-83.5-45.2c0 0 .6-18.9 22.9-34.9 22.3-16 10.3-34.9 10.3-34.9s-4-6.9 8.6-18.9c12.6-12 10.9-29.2 10.9-29.2s-.6-29.7 22.8-32.9c23.5-3.2 36.6 39.7 37.2 47.2.6 7.4 8 13.7 17.2 18.3 9.1 4.6 28 19.4 20 48.6 0 0-7.4 10.3 4 21.7 11.4 11.4 21.2 36-12.6 52 0 0-8 2.9-26.3 1.1-18.4-1.5-18.9 3.6-31.5 7.1z" fill="url(#SVGID_56_)"/></g></svg>