<svg version="1" xmlns="http://www.w3.org/2000/svg" xmlns:xlink="http://www.w3.org/1999/xlink" viewBox="0 0 1920 1220"><style>.st3{fill:#d9eefc}.st3,.st7{display:none}.st14{display:inline}.st31{fill:#6a15bc}.st40,.st49{fill:#fcc}.st49{display:none}.st51{fill:#63c}.st60{display:inline;clip-path:url(#SVGID_53_)}</style><linearGradient id="SVGID_1_" gradientUnits="userSpaceOnUse" x1="1344" y1="1103" x2="619" y2="184"><stop offset="0" stop-color="#9cf"/><stop offset="1" stop-color="#f1f0fb"/></linearGradient><linearGradient id="SVGID_2_" gradientUnits="userSpaceOnUse" x1="439" y1="616" x2="521" y2="616"><stop offset="0" stop-color="#63c"/><stop offset="0" stop-color="#7347d2"/><stop offset="0" stop-color="#957ae0"/><stop offset="1" stop-color="#cacbf7"/><stop offset="1" stop-color="#d0d4f9"/></linearGradient><path class="st3" d="M865 646H460c-1 0-2-1-2-3v-5c0-2 1-3 2-3h403l2 3v8z"/><linearGradient id="SVGID_3_" gradientUnits="userSpaceOnUse" x1="847" y1="849" x2="1915" y2="411"><stop offset="0" stop-color="#ecfffc"/><stop offset="0" stop-color="#cacbf0"/><stop offset="1" stop-color="#957add"/><stop offset="1" stop-color="#7347d1"/><stop offset="1" stop-color="#63c"/></linearGradient><linearGradient id="SVGID_4_" gradientUnits="userSpaceOnUse" x1="728" y1="676" x2="1951" y2="559"><stop offset="0" stop-color="#d9eefc"/><stop offset="0" stop-color="#a091e4"/><stop offset="1" stop-color="#764dd3"/><stop offset="1" stop-color="#63c"/></linearGradient><linearGradient id="SVGID_5_" gradientUnits="userSpaceOnUse" x1="838" y1="677" x2="1720" y2="602"><stop offset="0" stop-color="#c9dcf8" stop-opacity="0"/><stop offset="0" stop-color="#c6d8f7" stop-opacity="0"/><stop offset="0" stop-color="#bac4f3"/><stop offset="1" stop-color="#b67dca"/><stop offset="1" stop-color="#b34aad"/><stop offset="1" stop-color="#b236a2"/></linearGradient><g class="st7"><linearGradient id="SVGID_6_" gradientUnits="userSpaceOnUse" x1="970" y1="841" x2="1624" y2="574"><stop offset="0" stop-color="#beccf5" stop-opacity="0"/><stop offset="0" stop-color="#bfc6f1"/><stop offset="0" stop-color="#c892cc"/><stop offset="1" stop-color="#d8388d"/></linearGradient><path d="M1691 756c5-25-13-39-11-63 2-21 19-38 20-60 4-51-29-58-40-100-7-25 5-55-2-80-5-17-16-35-26-47-32-32-85-14-116-43-31-31-31-54-77-61-44-7-60 24-96 35-32 9-58-2-89 15-12 7-25 19-36 32-12 15-17 43-32 55s-29 4-45 12c-14 6-20 17-36 24-40 19-63 25-87 76-10 21-18 53-33 75-13 19-39 43-52 60-18 25-32 42-52 62-19 19-29 35-18 62 5 12 15 14 27 23l57 46c38 35 98 51 138 71 51 27 87 51 142 52 20 0 35-15 52-15 23 0 37 14 58 17 21 4 42-10 62-9 20 2 31 15 52 9 14-4 24-17 40-21 16-5 34 1 51-4 43-12 83-46 103-93 9-21 7-44 14-64 7-24 28-42 32-66z" fill="url(#SVGID_6_)"/></g><circle class="st3" cx="406" cy="640" r="5"/><circle class="st3" cx="425" cy="640" r="5"/><circle class="st3" cx="444" cy="640" r="5"/><path class="st3" d="M402 699h130l2-2v-6l-2-2H402l-2 2v6l2 2zM402 719h130l2-2v-6l-2-2H402l-2 2v6l2 2zM402 739h130l2-2v-6l-2-2H402l-2 2v6l2 2z"/><g class="st7"><linearGradient id="SVGID_7_" gradientUnits="userSpaceOnUse" x1="734" y1="805" x2="869" y2="805"><stop offset="0" stop-color="#fff"/><stop offset="1" stop-color="#fff" stop-opacity="0"/><stop offset="1" stop-color="#fff" stop-opacity="0"/></linearGradient><path d="M854 751h15v-2h-15c-3 0-6 3-6 7v5h-8l-4-1-8-8-4-2h-22v-8c0-4-2-6-6-6h-32c-3 0-6 2-6 6v16c0 3-2 5-5 5h-19v1h19c4 0 6-2 6-6v-16c0-3 3-5 5-5h32c3 0 5 2 5 5v8h-27c0-2-2-4-4-4-3 0-5 2-5 5 0 2 2 4 5 4 2 0 4-1 4-4h27v24h-46l-2-2c-2 0-3 1-3 3 0 1 1 3 3 3 1 0 2-1 2-3h46v3c0 4 3 6 7 6h25v28c0 3 3 6 6 6h9v34h-26v-36c0-3-3-6-7-6h-16c-3 0-6-2-6-5 0-4-2-7-6-7h-48v2h48c3 0 5 2 5 5s3 6 7 6h16c3 0 5 2 5 5v36h-8c-3 0-5-2-5-5v-11c0-4-3-7-7-7h-36c-1-1-2-3-4-3s-4 2-4 4 2 3 4 3 3-1 4-3h36c3 0 5 3 5 6v11c0 3 3 6 7 6h8v15c0 3 3 6 7 6h16c4 0 6-3 6-6v-15h20v-1h-20v-34h20v-1h-20v-33h20v-1h-20v-22h20v-1h-20v-5c0-3 2-5 5-5zm-6 118c0 3-2 5-5 5h-17c-2 0-5-2-5-5v-15h27v15zm-15-85h-25c-3 0-5-2-5-5v-3h25c3 0 5 3 5 5v3zm15 34h-9c-3 0-5-3-5-5v-28h14v33zm0-34h-14v-2c0-4-3-7-6-7h-25v-24h21l4 2 7 7c1 2 3 2 5 2h8v22z" fill="url(#SVGID_7_)"/><linearGradient id="SVGID_8_" gradientUnits="userSpaceOnUse" x1="569" y1="863" x2="713" y2="863"><stop offset="0" stop-color="#fff"/><stop offset="1" stop-color="#fff" stop-opacity="0"/><stop offset="1" stop-color="#fff" stop-opacity="0"/></linearGradient><path d="M601 879l4-2 26-26 4-1h78v-1h-78l-5 1-25 26-4 1h-32v2h32z" fill="url(#SVGID_8_)"/><linearGradient id="SVGID_9_" gradientUnits="userSpaceOnUse" x1="704" y1="723" x2="869" y2="723"><stop offset="0" stop-color="#fff"/><stop offset="1" stop-color="#fff" stop-opacity="0"/><stop offset="1" stop-color="#fff" stop-opacity="0"/></linearGradient><path d="M851 736l-3-2-23-22c-1-2-3-2-4-2h-66c-3 0-6 3-6 6v7c0 3-3 5-5 5h-40v1h40c3 0 6-3 6-6v-7c0-3 2-5 5-5h66l3 1 23 23 4 2h18v-1h-18z" fill="url(#SVGID_9_)"/><linearGradient id="SVGID_10_" gradientUnits="userSpaceOnUse" x1="569" y1="777" x2="696" y2="777"><stop offset="0" stop-color="#fff"/><stop offset="1" stop-color="#fff" stop-opacity="0"/><stop offset="1" stop-color="#fff" stop-opacity="0"/></linearGradient><path d="M569 714h67c3 0 5 2 5 5v17h-32l-5 1-18 19-4 1h-13v2h13l5-2 18-19 4-1h32v31h-45c-3 0-6 3-6 7v25h-21v2h21v2c0 3-2 5-5 5h-16v1h16c4 0 6-3 6-6v-2h50v19h-2l-5 2-14 15-4 1h-47v2h47l5-2 14-15 4-1h2v7c0 4 3 7 6 7h20c0 2 2 4 5 4 2 0 4-2 4-5 0-2-2-5-4-5-3 0-5 2-5 4h-20c-2 0-5-2-5-5v-7h54v-2h-54v-19h21c3 0 6-3 6-7v-13c0-3 2-5 5-6 0 2 1 3 3 3l2-3c0-2-1-3-2-3-2 0-3 1-3 2-4 0-6 3-6 7v13c0 3-3 5-5 5h-21v-30h53v-1h-53v-32h17c3 0 5 2 5 5v11c0 3 3 6 6 6h12l3 2c2 0 3-1 3-2s-1-3-3-3l-3 2h-12c-2 0-5-2-5-5v-11c0-4-3-6-6-6h-17v-17c0-3-3-6-6-6h-67v1zm72 86h-50v-25c0-3 2-6 5-6h45v31z" fill="url(#SVGID_10_)"/></g><path class="st3" d="M531 850h-96l-2-2v-82l2-2h96l2 2v82l-2 2z"/><g class="st7"><g class="st14"><linearGradient id="SVGID_11_" gradientUnits="userSpaceOnUse" x1="991" y1="586" x2="1211" y2="931"><stop offset="0" stop-color="#ceb7dd"/><stop offset="0" stop-color="#d27eb9"/><stop offset="0" stop-color="#d64c99"/><stop offset="1" stop-color="#d8388d"/><stop offset="1" stop-color="#ac36a5"/><stop offset="1" stop-color="#7a34c1"/><stop offset="1" stop-color="#63c"/></linearGradient><path d="M1047 941h98l1-1h86l1-2V565l-1-2H961l-2 2v373l2 2h84l2 1z" fill="url(#SVGID_11_)"/><linearGradient id="SVGID_12_" gradientUnits="userSpaceOnUse" x1="5949" y1="-2049" x2="5971" y2="-2031" gradientTransform="rotate(180 3528 -537)"><stop offset="0" stop-color="#d8388d"/><stop offset="1" stop-color="#c56"/></linearGradient><path fill="url(#SVGID_12_)" d="M1086 957h20v20h-20z"/><linearGradient id="SVGID_13_" gradientUnits="userSpaceOnUse" x1="1096" y1="587" x2="1096" y2="869"><stop offset="0" stop-color="#d8388d"/><stop offset="1" stop-color="#cd92c9"/><stop offset="1" stop-color="#c5d5f7"/></linearGradient><path d="M1097 854h16v34h-16v-34zm-18 34h16v-34h-16v34zm-67-34h15v34h-15v-34zm-18 34h15v-34h-15v34zm18-120h15v34h-15v-34zm-18 34h15v-34h-15v34zm18-120h15v34h-15v-34zm-18 34h15v-34h-15v34zm103 52h16v34h-16v-34zm-18 34h16v-34h-16v34zm18-120h16v34h-16v-34zm-18 34h16v-34h-16v34zm18-120h16v34h-16v-34zm-18 34h16v-34h-16v34zm-67-34h15v34h-15v-34zm-18 34h15v-34h-15v34zm189 224h16v34h-16v-34zm-18 34h16v-34h-16v34zm18-120h16v34h-16v-34zm-18 34h16v-34h-16v34zm18-120h16v34h-16v-34zm-18 34h16v-34h-16v34zm18-120h16v34h-16v-34zm-18 34h16v-34h-16v34z" fill="url(#SVGID_13_)"/><linearGradient id="SVGID_14_" gradientUnits="userSpaceOnUse" x1="1096" y1="632" x2="1095" y2="899"><stop offset="0" stop-color="#d8388d"/><stop offset="1" stop-color="#b136a2"/></linearGradient><path fill="url(#SVGID_14_)" d="M1067 625h59v26h-59z"/><linearGradient id="SVGID_15_" gradientUnits="userSpaceOnUse" x1="1097" y1="632" x2="1095" y2="899"><stop offset="0" stop-color="#d8388d"/><stop offset="1" stop-color="#b136a2"/></linearGradient><path fill="url(#SVGID_15_)" d="M1067 711h59v26h-59z"/><linearGradient id="SVGID_16_" gradientUnits="userSpaceOnUse" x1="1097" y1="632" x2="1096" y2="899"><stop offset="0" stop-color="#d8388d"/><stop offset="1" stop-color="#b136a2"/></linearGradient><path fill="url(#SVGID_16_)" d="M1067 797h59v26h-59z"/><linearGradient id="SVGID_17_" gradientUnits="userSpaceOnUse" x1="1098" y1="632" x2="1096" y2="899"><stop offset="0" stop-color="#d8388d"/><stop offset="1" stop-color="#b136a2"/></linearGradient><path fill="url(#SVGID_17_)" d="M1067 882h59v26h-59z"/></g></g><g class="st7"><defs><path id="SVGID_18_" d="M1740 692c5-24 27-41 31-65s0-46-8-63c-10-20-29-31-33-55l-1-13c0-16 6-34 6-52a134 134 0 0 0-13-65c-9-16-20-30-33-40-25-20-57-15-85-25-17-6-27-18-36-33-11-21-19-43-36-58a79 79 0 0 0-53-23c-32-1-56 21-86 37-9 5-19 8-29 10-35 4-69-8-102 4a164 164 0 0 0-92 79c-10 17-14 31-28 41l-14 8c-12 5-23 6-33 12l-36 23-10 6c-17 10-32 25-50 39a185 185 0 0 0-65 90c-5 16-7 34-15 50l-15 23c-15 19-37 36-48 60-14 27-24 35-46 54-6 4-11 9-16 15-13 14-22 30-18 50 2 8 5 14 10 21 8 10 19 15 30 25l1 1c19 17 38 42 58 61 34 32 82 42 123 57l26 11 62 36c28 15 58 24 87 27 23 3 42-6 62-8 26-4 48-1 74 6 26 6 47 4 74 4h11c10 0 21-2 31 0l19 3c7 1 14 2 21 1 11-1 19-5 28-9 12-6 24-12 39-15 6-2 12-2 18-2 8-1 17-2 26-5 44-15 80-50 103-95 13-23 18-51 25-76 5-15 8-25 17-38 10-14 21-21 27-35l3-10c5-26-15-41-11-66v-3z"/></defs><clipPath id="SVGID_19_" class="st14"><use xlink:href="#SVGID_18_" overflow="visible"/></clipPath><g clip-path="url(#SVGID_19_)"><linearGradient id="SVGID_20_" gradientUnits="userSpaceOnUse" x1="1670" y1="668" x2="1441" y2="878"><stop offset="0" stop-color="#b236a2"/><stop offset="0" stop-color="#ac36a5"/><stop offset="1" stop-color="#7a34c1"/><stop offset="1" stop-color="#63c"/></linearGradient><path d="M1540 932v54l1 1h95c1 1 2 0 2-1v-54l1-1h86l1-2V556l-1-2h-271l-2 2v373l2 2h84l2 1z" fill="url(#SVGID_20_)"/><linearGradient id="SVGID_21_" gradientUnits="userSpaceOnUse" x1="5456" y1="-2040" x2="5478" y2="-2021" gradientTransform="rotate(180 3528 -537)"><stop offset="0" stop-color="#d8388d"/><stop offset="1" stop-color="#c56"/></linearGradient><path fill="url(#SVGID_21_)" d="M1579 947h20v20h-20z"/><linearGradient id="SVGID_22_" gradientUnits="userSpaceOnUse" x1="5502" y1="-2005" x2="5446" y2="-1687" gradientTransform="rotate(180 3528 -537)"><stop offset="0" stop-color="#b236a2"/><stop offset="1" stop-color="#d8388d"/></linearGradient><path d="M1590 844h16v34h-16v-34zm-18 35h16v-35h-16v35zm-68-35h16v34h-16v-34zm-17 35h15v-35h-15v35zm17-120h16v34h-16v-34zm-17 34h15v-34h-15v34zm17-120h16v34h-16v-34zm-17 34h15v-34h-15v34zm103 52h16v34h-16v-34zm-18 34h16v-34h-16v34zm18-120h16v34h-16v-34zm-18 34h16v-34h-16v34zm18-120h16v34h-16v-34zm-18 34h16v-34h-16v34zm-68-34h16v34h-16v-34zm-17 34h15v-34h-15v34zm189 223h16v34h-16v-34zm-18 35h16v-35h-16v35zm18-120h16v34h-16v-34zm-18 34h16v-34h-16v34zm18-120h16v34h-16v-34zm-18 34h16v-34h-16v34zm18-120h16v34h-16v-34zm-18 34h16v-34h-16v34z" fill="url(#SVGID_22_)"/><linearGradient id="SVGID_23_" gradientUnits="userSpaceOnUse" x1="1589" y1="891" x2="1589" y2="598"><stop offset="0" stop-color="#63c"/><stop offset="0" stop-color="#7033c7"/><stop offset="1" stop-color="#8134bd"/><stop offset="1" stop-color="#8734ba"/></linearGradient><path fill="url(#SVGID_23_)" d="M1560 616h59v26h-59z"/><linearGradient id="SVGID_24_" gradientUnits="userSpaceOnUse" x1="1589" y1="891" x2="1589" y2="598"><stop offset="0" stop-color="#63c"/><stop offset="0" stop-color="#7033c7"/><stop offset="1" stop-color="#8134bd"/><stop offset="1" stop-color="#8734ba"/></linearGradient><path fill="url(#SVGID_24_)" d="M1560 702h59v26h-59z"/><linearGradient id="SVGID_25_" gradientUnits="userSpaceOnUse" x1="1589" y1="891" x2="1589" y2="598"><stop offset="0" stop-color="#63c"/><stop offset="0" stop-color="#7a34c1"/><stop offset="1" stop-color="#ac36a5"/><stop offset="1" stop-color="#b236a2"/></linearGradient><path fill="url(#SVGID_25_)" d="M1560 787h59v26h-59z"/><linearGradient id="SVGID_26_" gradientUnits="userSpaceOnUse" x1="1589" y1="891" x2="1589" y2="598"><stop offset="0" stop-color="#63c"/><stop offset="0" stop-color="#7a34c1"/><stop offset="1" stop-color="#ac36a5"/><stop offset="1" stop-color="#b236a2"/></linearGradient><path fill="url(#SVGID_26_)" d="M1560 873h59v26h-59z"/></g></g><g class="st7"><linearGradient id="SVGID_27_" gradientUnits="userSpaceOnUse" x1="1061" y1="864" x2="962" y2="881" gradientTransform="matrix(-1 0 0 1 2175 0)"><stop offset="0" stop-color="#d8388d"/><stop offset="0" stop-color="#ac36a5"/><stop offset="1" stop-color="#7a34c1"/><stop offset="1" stop-color="#63c"/></linearGradient><path d="M1158 950s-54 12-54-37c1 0 1-16 15-29 15-13 7-29 7-29s-3-6 5-15c8-10 7-25 7-25s0-24 15-27c15-2 24 33 24 39s5 12 11 15c6 4 18 17 13 41 0 0-5 8 2 18 8 9 14 30-8 43 0 0-5 2-17 1-11-2-12 2-20 5z" fill="url(#SVGID_27_)"/><g class="st14"><path class="st31" d="M1143 897c-6 3-8 3-13 2 5 1 9-2 11-3l-9-11 5 4c4 5 11 10 19 7l1-21-6-3c-2 1-5 0-7-2l-3-2 1 1c3 2 7 2 8 1l-2-5-1-6v1c2 9 8 12 10 12l1-22a2258 2258 0 0 0 0 36c6 2 11-1 14-5l3-3-6 8 8 2c-4 0-5 1-9-1-5 4-8 3-9 3v28c4 0 15-3 20-17-1 5-3 11-8 16 2 1 6 2 10 0l1-1-4 2c-3 2-6 2-9 0-2 2-5 4-9 5h-1l2 50-2 2h-4l-2-2v-8l2-63c-2 0-6 0-12-5z"/></g></g><g class="st7"><g class="st14"><linearGradient id="SVGID_28_" gradientUnits="userSpaceOnUse" x1="1199" y1="963" x2="1539" y2="471"><stop offset="0" stop-color="#d8388d"/><stop offset="0" stop-color="#ac36a5"/><stop offset="1" stop-color="#7a34c1"/><stop offset="1" stop-color="#63c"/></linearGradient><path d="M1433 468v-70l-2-2h-124c-2 0-3 1-3 2v70l-2 2h-112c-1 1-2 1-2 3v490l2 2h356l2-2V473c0-2-1-3-2-3h-111c-1 1-2 0-2-2z" fill="url(#SVGID_28_)"/><path fill="#d8388d" d="M1355 422h27v27h-27z"/><linearGradient id="SVGID_29_" gradientUnits="userSpaceOnUse" x1="1368" y1="945" x2="1368" y2="553"><stop offset="0" stop-color="#c9e3fb"/><stop offset="0" stop-color="#d091c7"/><stop offset="1" stop-color="#d8388d"/></linearGradient><path d="M1367 567h-21v-45h21v45zm23-45h-20v45h20v-45zm90 45h-21v-45h21v45zm23-45h-21v45h21v-45zm-23 158h-21v-45h21v45zm23-45h-21v45h21v-45zm-23 157h-21v-44h21v44zm23-44h-21v44h21v-44zm-136-68h-21v-45h21v45zm23-45h-20v45h20v-45zm-23 157h-21v-44h21v44zm23-44h-20v44h20v-44zm-23 157h-21v-45h21v45zm23-45h-20v45h20v-45zm90 45h-21v-45h21v45zm23-45h-21v45h21v-45zm-249-293h-20v-45h20v45zm24-45h-21v45h21v-45zm-24 158h-20v-45h20v45zm24-45h-21v45h21v-45zm-24 157h-20v-44h20v44zm24-44h-21v44h21v-44zm-24 157h-20v-45h20v45zm24-45h-21v45h21v-45z" fill="url(#SVGID_29_)"/><linearGradient id="SVGID_30_" gradientUnits="userSpaceOnUse" x1="1351" y1="546" x2="1385" y2="605"><stop offset="0" stop-color="#d8388d"/><stop offset="1" stop-color="#b136a2"/></linearGradient><path fill="url(#SVGID_30_)" d="M1330 558h77v34h-77z"/><linearGradient id="SVGID_31_" gradientUnits="userSpaceOnUse" x1="1368" y1="563" x2="1368" y2="920"><stop offset="0" stop-color="#d8388d"/><stop offset="0" stop-color="#ac36a5"/><stop offset="1" stop-color="#7a34c1"/><stop offset="1" stop-color="#63c"/></linearGradient><path fill="url(#SVGID_31_)" d="M1330 671h77v34h-77z"/><linearGradient id="SVGID_32_" gradientUnits="userSpaceOnUse" x1="1368" y1="563" x2="1368" y2="920"><stop offset="0" stop-color="#d8388d"/><stop offset="0" stop-color="#ac36a5"/><stop offset="1" stop-color="#7a34c1"/><stop offset="1" stop-color="#63c"/></linearGradient><path fill="url(#SVGID_32_)" d="M1330 783h77v34h-77z"/><linearGradient id="SVGID_33_" gradientUnits="userSpaceOnUse" x1="1368" y1="563" x2="1368" y2="937"><stop offset="0" stop-color="#d8388d"/><stop offset="0" stop-color="#ac36a5"/><stop offset="1" stop-color="#7a34c1"/><stop offset="1" stop-color="#63c"/></linearGradient><path fill="url(#SVGID_33_)" d="M1330 896h77v34h-77z"/></g></g><g class="st7"><path d="M562 880l4 13s-13-1-18-7l5-12 9 6z" fill="#f7d3a9"/><g class="st14"><path class="st40" d="M571 805v-4-4h-3l-2-2h-3l-3 5 1 2 3 4 2 1h3l2-2z"/><linearGradient id="SVGID_34_" gradientUnits="userSpaceOnUse" x1="580" y1="818" x2="521" y2="952"><stop offset="0" stop-color="#9cf"/><stop offset="0" stop-color="#92b8f8"/><stop offset="1" stop-color="#8185e7"/><stop offset="1" stop-color="#6634cc"/><stop offset="1" stop-color="#63c"/></linearGradient><path d="M537 901s24-32 25-43v-52l9 1s9 58 7 65-15 42-25 47c-10 4-19-6-16-18z" fill="url(#SVGID_34_)"/><path class="st40" d="M572 853s7 20 3 26c-4 5-19 0-24-8-6-8-7-27 2-29 10-1 17 3 19 11z"/><path class="st40" d="M567 880l3 13s-13-2-16-8l6-11 7 6zM612 816l1-5 1-3 3 1 2-2c1-1 3 0 3 1 1 2 2 4 1 6v2l-5 3h-2l-3-1-1-2z"/><linearGradient id="SVGID_35_" gradientUnits="userSpaceOnUse" x1="608" y1="830" x2="520" y2="1104"><stop offset="0" stop-color="#9cf"/><stop offset="0" stop-color="#92b8f8"/><stop offset="1" stop-color="#8185e7"/><stop offset="1" stop-color="#6634cc"/><stop offset="1" stop-color="#63c"/></linearGradient><path d="M619 819l-8-3-15 50c-3 7-18 20-27 28l-2-1-20-7c-4 0-14-1-18 10v2l5 69c0 63-42 123-42 123l-3 7 18 9-7-12c33-32 49-70 55-95 6 54 0 104 0 104l-1 9 20 1-11-8c22-60 16-120 14-134h1c-4-19 4-46 6-52l-1-11 22-26c4-6 14-63 14-63z" fill="url(#SVGID_35_)"/><linearGradient id="SVGID_36_" gradientUnits="userSpaceOnUse" x1="552" y1="848" x2="532" y2="976"><stop offset="0" stop-color="#d8388d"/><stop offset="0" stop-color="#ac36a5"/><stop offset="1" stop-color="#7a34c1"/><stop offset="1" stop-color="#63c"/></linearGradient><path d="M550 842s16-7 24 8c4 9-9 0-12 3-2 3 4 9 2 11s-4-4-6-1c-2 4 2 4 5 8 3 3-3 11 1 14s13 15 6 33 5 13-3 38c-8 24-51 35-61 6s20-33 18-46-6-19 4-31c10-13 11-20 11-28 0-9 7-15 11-15z" fill="url(#SVGID_36_)"/></g></g><g class="st7"><linearGradient id="SVGID_37_" gradientUnits="userSpaceOnUse" x1="428" y1="1113" x2="414" y2="964"><stop offset="0" stop-color="#63c"/><stop offset="0" stop-color="#7347d2"/><stop offset="0" stop-color="#957ae0"/><stop offset="1" stop-color="#cacbf7"/><stop offset="1" stop-color="#d0d4f9"/></linearGradient><path d="M382 972s51 83 44 140l35 1-15-9h6s-17-87-29-119c-13-33-14-23-14-23l-27 10z" fill="url(#SVGID_37_)"/><linearGradient id="SVGID_38_" gradientUnits="userSpaceOnUse" x1="379" y1="1118" x2="364" y2="969"><stop offset="0" stop-color="#63c"/><stop offset="0" stop-color="#7347d2"/><stop offset="0" stop-color="#957ae0"/><stop offset="1" stop-color="#cacbf7"/><stop offset="1" stop-color="#d0d4f9"/></linearGradient><path d="M363 967s3 57-1 79l-17 66h32l-8-6-6-3s26-63 29-92c2-30 5-47 5-47l-34 3z" fill="url(#SVGID_38_)"/><g class="st14"><path class="st40" d="M430 818l5-4 3-8-3-1-1 3 1-15-3 1-2 14-3 7 3 2M488 856l2-6 9-6 1 3-3 2h15v3l-15 2-4 5z"/><linearGradient id="SVGID_39_" gradientUnits="userSpaceOnUse" x1="356" y1="901" x2="433" y2="901"><stop offset="0" stop-color="#9cf"/><stop offset="1" stop-color="#fff"/></linearGradient><path d="M425 814s-59 64-66 79c0 0-3 5-3 21v74l67-13-21-71c-1-2-8-11-17-13l48-72-8-5z" fill="url(#SVGID_39_)"/><path class="st40" d="M388 883l4 12s-13 0-17-6l4-12 9 6z"/><path class="st40" d="M398 859s3 22 0 26c-4 5-17-3-22-11-6-8-7-26 2-27 9-2 17 4 20 12z"/><linearGradient id="SVGID_40_" gradientUnits="userSpaceOnUse" x1="372" y1="888" x2="494" y2="888"><stop offset="0" stop-color="#9cf"/><stop offset="1" stop-color="#fff"/></linearGradient><path d="M383 894s57-1 64-4 41-37 41-37l6 7-36 45c-4 4-72 22-81 16-10-5-5-20 6-27z" fill="url(#SVGID_40_)"/></g><linearGradient id="SVGID_41_" gradientUnits="userSpaceOnUse" x1="389" y1="839" x2="372" y2="886"><stop offset="0" stop-color="#d8388d"/><stop offset="0" stop-color="#ac36a5"/><stop offset="1" stop-color="#7a34c1"/><stop offset="1" stop-color="#63c"/></linearGradient><path d="M391 841c-1 1-20 3-22 11-2 7 1 9 1 9s-4 4 0 11c5 6 15 11 18 11 2-1 1-11 1-11s-6-1-6-5c-1-4 2-4 4-2l3 4c1-1-1-9-1-9s4-3 5-6c0 0 3-9-3-13z" fill="url(#SVGID_41_)"/></g><path class="st49" d="M500 601c13 11 23-22 23-22s-3-18-19-11-7 30-4 33z"/><path class="st49" d="M498 593l-10 11s5 8 12 7l6-11-8-7z"/><linearGradient id="SVGID_42_" gradientUnits="userSpaceOnUse" x1="493" y1="579" x2="527" y2="579"><stop offset="0" stop-color="#d8388d"/><stop offset="0" stop-color="#ac36a5"/><stop offset="1" stop-color="#7a34c1"/><stop offset="1" stop-color="#63c"/></linearGradient><path class="st49" d="M474 627l3 2-1 3-8-4h-6c1-1 5-6 8-6l1 1c3 0 5 1 7 3l4 2-4 9-2-2-2-8zM535 627l3 2-1 3-8-4h-6c1-1 5-6 8-6l1 1c3 0 5 1 7 3l4 2-4 9-2-2-2-8z"/><g class="st7"><g class="st14"><path class="st51" d="M807 1114l-3-2-85-344 2-3 4 2 85 344-2 3h-1zM743 1114l-3-2-85-344c-1-1 0-3 2-3l3 2 85 344c1 1 0 2-2 3z"/><path class="st51" d="M725 788h-62c-2 0-3-1-3-2 0-2 1-3 3-3h62c2 0 3 1 3 3 0 1-1 2-3 2zM732 816h-62c-2 0-3-1-3-3 0-1 1-2 3-2h62c2 0 3 1 3 2 0 2-1 3-3 3zM739 843h-63l-2-2 2-2h63c2 0 3 1 3 2l-3 2zM746 871h-63c-1 0-3-1-3-3l3-2h63l3 2c0 2-2 3-3 3zM753 898h-63l-3-2c0-1 1-2 3-2h63l2 2-2 2zM760 926h-63c-2 0-3-1-3-3 0-1 1-2 3-2h63l2 2c0 2-1 3-2 3zM766 953h-62c-2 0-3-1-3-2s1-2 3-2h62c2 0 3 1 3 2s-1 2-3 2zM773 981h-62c-2 0-3-1-3-3l2-2h63c2 0 3 1 3 2 0 2-1 3-3 3zM780 1008h-63l-2-2 2-2h63c2 0 3 1 3 2s-1 2-3 2zM787 1036h-63c-1 0-3-1-3-3l3-2h63l3 2c0 2-2 3-3 3zM794 1063h-63l-3-2c0-1 1-2 3-2h63l2 2-2 2z"/></g></g><linearGradient id="SVGID_43_" gradientUnits="userSpaceOnUse" x1="425" y1="1011" x2="410" y2="862" gradientTransform="matrix(-1 0 0 1 1188 0)"><stop offset="0" stop-color="#63c"/><stop offset="0" stop-color="#6634cc"/><stop offset="0" stop-color="#8185e7"/><stop offset="1" stop-color="#92b8f8"/><stop offset="1" stop-color="#9cf"/></linearGradient><linearGradient id="SVGID_44_" gradientUnits="userSpaceOnUse" x1="774" y1="893" x2="719" y2="1006"><stop offset="0" stop-color="#9cf"/><stop offset="0" stop-color="#92b8f8"/><stop offset="1" stop-color="#8185e7"/><stop offset="1" stop-color="#6634cc"/><stop offset="1" stop-color="#63c"/></linearGradient><g class="st7"><g class="st14"><linearGradient id="SVGID_45_" gradientUnits="userSpaceOnUse" x1="787" y1="898" x2="787" y2="791"><stop offset="0" stop-color="#63c"/><stop offset="0" stop-color="#6634cc"/><stop offset="0" stop-color="#8185e7"/><stop offset="1" stop-color="#92b8f8"/><stop offset="1" stop-color="#9cf"/></linearGradient><path d="M804 849c0-3-3-9-12-22-5-9-8-12-10-14-4-4-9-3-11 0-2 4-2 11 0 13l18 22c-4 6-13 24-16 26-2 2 0 5 3 4 3 0 6-3 12-8 10-9 12-11 16-18v-3z" fill="url(#SVGID_45_)"/><path class="st40" d="M706 752l-2 4c-3-6-8-13-10-11-3 4-1 11 0 14 2 4 6 7 9 6 2 0 4-1 4-3v-2l-1-8zM773 789c2-19-8-20-14-20-5 1-10 6-11 10v5l-2-1c-2 1-2 4-1 6l3 4 1 4c1 3 3 8 7 8v7c-1 3 3 6 7 6 3 0 6-4 6-7a229 229 0 0 0 0-10c3-3 3-5 4-12z"/><linearGradient id="SVGID_46_" gradientUnits="userSpaceOnUse" x1="743" y1="903" x2="743" y2="793"><stop offset="0" stop-color="#63c"/><stop offset="0" stop-color="#6634cc"/><stop offset="0" stop-color="#8185e7"/><stop offset="1" stop-color="#92b8f8"/><stop offset="1" stop-color="#9cf"/></linearGradient><path d="M774 808l-9-1h-9l-9 2-25-20v-1c-2-6-15-24-17-27-2-1-5-1-6 2 0 4 1 4 4 13l9 23 2 1 18 26-8 75 55-3c-1-14-1-42 5-63 4-12 3-23-10-27z" fill="url(#SVGID_46_)"/><ellipse transform="rotate(-68 772 788)" cx="772" cy="788" rx="5" ry="3" fill="#ffaf84"/><linearGradient id="SVGID_47_" gradientUnits="userSpaceOnUse" x1="758" y1="771" x2="768" y2="805"><stop offset="0" stop-color="#d8388d"/><stop offset="0" stop-color="#ac36a5"/><stop offset="1" stop-color="#7a34c1"/><stop offset="1" stop-color="#63c"/></linearGradient><path d="M772 773c2-2-16-9-16-9-8 2-11 9-8 12l2 1-1 6c0 6 2 15 12 17 10 3 13-7 13-14 1-6 1-10-2-13z" fill="url(#SVGID_47_)"/></g></g><g class="st7"><defs><path id="SVGID_48_" d="M1741 692c5-24 27-41 31-66 4-24 0-45-9-63-10-19-28-30-33-55l-1-12c0-17 7-35 7-53a134 134 0 0 0-14-65c-8-15-20-30-32-40-25-20-58-14-86-24-16-6-27-18-35-34-12-20-19-42-36-58a79 79 0 0 0-53-22c-32-1-56 20-86 36-10 5-19 9-30 10-35 4-68-8-102 4a164 164 0 0 0-92 79c-9 17-13 31-28 42l-13 7c-12 5-24 7-34 13l-36 23-9 5c-17 11-33 25-50 40a185 185 0 0 0-66 89c-4 16-6 35-15 51-4 8-9 16-15 22-14 19-37 37-48 60-13 28-24 36-46 54l-15 15c-14 15-22 31-18 50 1 8 5 15 9 21 8 11 20 15 31 25l1 1c18 18 38 43 58 62 33 31 81 41 123 57l25 11 63 36c27 14 58 23 86 27 23 3 43-6 63-9 26-3 47 0 73 6 26 7 48 5 74 4h42l19 4c8 1 15 2 22 1 11-2 19-6 27-10 13-5 24-12 39-15l18-2c9-1 17-1 27-4 43-16 79-50 103-95 12-24 17-51 25-76 4-16 8-26 17-39s21-20 27-35l3-10c4-25-15-40-11-65v-3z"/></defs><clipPath id="SVGID_49_" class="st14"><use xlink:href="#SVGID_48_" overflow="visible"/></clipPath><linearGradient id="SVGID_50_" gradientUnits="userSpaceOnUse" x1="1245" y1="1087" x2="1074" y2="871"><stop offset="0" stop-color="#63c"/><stop offset="0" stop-color="#7e34bf"/><stop offset="1" stop-color="#d8388d"/></linearGradient><path d="M812 913s204-5 378 34c106 24 240 80 298 84s-182 27-182 27l-211-12-183-79-100-54z" clip-path="url(#SVGID_49_)" fill="url(#SVGID_50_)"/><linearGradient id="SVGID_51_" gradientUnits="userSpaceOnUse" x1="1354" y1="873" x2="1414" y2="1040"><stop offset="0" stop-color="#d8388d"/><stop offset="1" stop-color="#8234bd"/></linearGradient><path d="M1748 899s-318 21-467 54-271 33-271 33 50 48 112 67 133-12 133-12l144 12 99 6 110-55 140-105z" clip-path="url(#SVGID_49_)" fill="url(#SVGID_51_)"/></g><g class="st7"><defs><path id="SVGID_52_" d="M1741 692c5-24 27-41 31-66 4-24 0-45-9-63-10-19-28-30-33-55l-1-12c0-17 7-35 7-53a134 134 0 0 0-14-65c-8-15-20-30-32-40-25-20-58-14-86-24-16-6-27-18-35-34-12-20-19-42-36-58a79 79 0 0 0-53-22c-32-1-56 20-86 36-10 5-19 9-30 10-35 4-68-8-102 4a164 164 0 0 0-92 79c-9 17-13 31-28 42l-13 7c-12 5-24 7-34 13l-36 23-9 5c-17 11-33 25-50 40a185 185 0 0 0-66 89c-4 16-6 35-15 51-4 8-9 16-15 22-14 19-37 37-48 60-13 28-24 36-46 54l-15 15c-14 15-22 31-18 50 1 8 5 15 9 21 8 11 20 15 31 25l1 1c18 18 38 43 58 62 33 31 81 41 123 57l25 11 63 36c27 14 58 23 86 27 23 3 43-6 63-9 26-3 47 0 73 6 26 7 48 5 74 4h42l19 4c8 1 15 2 22 1 11-2 19-6 27-10 13-5 24-12 39-15l18-2c9-1 17-1 27-4 43-16 79-50 103-95 12-24 17-51 25-76 4-16 8-26 17-39s21-20 27-35l3-10c4-25-15-40-11-65v-3z"/></defs><clipPath id="SVGID_53_" class="st14"><use xlink:href="#SVGID_52_" overflow="visible"/></clipPath><g class="st60"><linearGradient id="SVGID_54_" gradientUnits="userSpaceOnUse" x1="878" y1="765" x2="960" y2="937"><stop offset="0" stop-color="#c9a4d3"/><stop offset="0" stop-color="#ce7ebb"/><stop offset="0" stop-color="#d54c9a"/><stop offset="1" stop-color="#d8388d"/><stop offset="1" stop-color="#ac36a5"/><stop offset="1" stop-color="#7a34c1"/><stop offset="1" stop-color="#63c"/></linearGradient><path d="M925 921s61 14 61-42c0 0-1-18-17-33s-8-33-8-33 3-6-6-17c-9-12-8-28-8-28s1-28-17-31c-17-3-27 38-27 45s-6 13-13 17c-6 4-20 18-14 46 0 0 5 9-3 20-9 11-16 34 9 49 0 0 6 3 19 1 14-2 14 3 24 6z" fill="url(#SVGID_54_)"/><path class="st31" d="M909 865c-7 3-9 3-15 2 6 1 11-2 13-3-3-3-7-6-10-11l5 5c5 4 13 9 22 6l1-21c-3 0-5-1-6-3-3 1-6 0-9-1l-3-2c5 3 9 2 11 2l-3-6-1-5v1c2 9 9 11 11 12a647 647 0 0 1 1 0l1 13c6 2 12-1 15-4l4-3-7 7c1 1 4 3 9 2-4 1-6 1-10-1-6 4-10 3-11 3v11l1 17c3 0 16-3 22-17-1 5-3 11-9 16 2 1 7 2 12 0l1-1-4 2c-4 2-7 2-11 0-3 2-6 4-11 5l1 49c0 1 0 2-2 2h-4l-2-2v-8l3-62c-3 1-8 0-15-5z"/></g><g class="st60"><linearGradient id="SVGID_55_" gradientUnits="userSpaceOnUse" x1="1181" y1="858" x2="1240" y2="961"><stop offset="0" stop-color="#d35fa6"/><stop offset="0" stop-color="#d54c9a"/><stop offset="0" stop-color="#d8388d"/><stop offset="1" stop-color="#ac36a5"/><stop offset="1" stop-color="#7a34c1"/><stop offset="1" stop-color="#63c"/></linearGradient><path d="M1219 961s53 9 53-29c0 0 0-12-15-23-14-10-6-22-6-22s2-4-6-12-7-19-7-19 1-19-14-21c-16-2-24 26-24 30-1 5-5 9-11 12s-18 13-13 31c0 0 5 7-3 14s-13 23 8 34h17c12-1 12 3 21 5z" fill="url(#SVGID_55_)"/><path class="st31" d="M1234 918c6 3 8 3 13 2-6 1-10-2-11-3l8-10-4 4c-5 4-11 9-19 6l-1-19 5-4h8l3-2h-1c-4 2-7 2-9 1l3-5v-5 1c-1 9-8 11-9 11l-1-20v20l-1 13c-6 2-10-1-13-4l-3-3 6 7-8 2c3 0 5 0 9-2 4 4 8 4 9 3v10l-1 17c-3-1-14-3-19-17 1 5 3 10 8 15-2 1-6 2-11 0l3 2c3 1 6 1 9-1a32 32 0 0 0 10 5l-1 46 2 2h4l1-2v-8l-2-57c2 0 7 0 13-5z"/></g></g><ellipse transform="rotate(-30 1105 265)" cx="1105" cy="265" rx="25" ry="19" fill="#b4b2ed"/><g class="st7"><linearGradient id="SVGID_56_" gradientUnits="userSpaceOnUse" x1="1607" y1="925" x2="1717" y2="832" gradientTransform="matrix(-1 0 0 1 3319 0)"><stop offset="0" stop-color="#63c"/><stop offset="0" stop-color="#7a34c1"/><stop offset="1" stop-color="#ac36a5"/><stop offset="1" stop-color="#d8388d"/></linearGradient><path d="M1651 949s-84 14-84-45c0 0 1-19 23-35 23-16 11-35 11-35s-4-7 8-19c13-12 11-29 11-29s-1-30 23-33c23-3 36 39 37 47 1 7 8 14 17 18 9 5 28 20 20 49 0 0-7 10 4 22 12 11 21 36-12 52 0 0-8 2-27 1-18-2-19 3-31 7z" fill="url(#SVGID_56_)"/></g></svg>